<?xml version="1.0" encoding="UTF-8"?>
<svg width="62px" height="62px" viewBox="0 0 62 62" version="1.1" xmlns="http://www.w3.org/2000/svg" xmlns:xlink="http://www.w3.org/1999/xlink">
    <!-- Generator: Sketch 50.2 (55047) - http://www.bohemiancoding.com/sketch -->
    <title>Group 10</title>
    <desc>Created with Sketch.</desc>
    <defs></defs>
    <g id="Page-1" stroke="none" stroke-width="1" fill="none" fill-rule="evenodd">
        <g id="Group-10">
            <path d="M60.9990002,31.0000002 C60.9990002,47.5680002 47.5680002,61.0000002 30.9990002,61.0000002 C14.4310002,61.0000002 1.00000025,47.5680002 1.00000025,31.0000002 C1.00000025,14.4310002 14.4310002,1.00000025 30.9990002,1.00000025 C47.5680002,1.00000025 60.9990002,14.4310002 60.9990002,31.0000002" id="Fill-26655" fill="#E16060"></path>
            <path d="M30.9990002,61.0000002 C14.4310002,61.0000002 1.00000025,47.5680002 1.00000025,31.0000002 C1.00000025,30.9660002 1.00000025,30.9310002 1.00000025,30.8970002 C1.00000025,30.8850002 1.00000025,30.8740002 1.00000025,30.8620002 C1.00000025,30.8380002 1.00000025,30.8160002 1.00100025,30.7930002 C1.00100025,30.7790002 1.00100025,30.7680002 1.00100025,30.7550002 C1.00100025,30.7330002 1.00100025,30.7110002 1.00200025,30.6890002 C1.00200025,30.6750002 1.00200025,30.6600002 1.00200025,30.6460002 C1.00200025,30.6260002 1.00200025,30.6060002 1.00300025,30.5860002 C1.00300025,30.5720002 1.00300025,30.5570002 1.00300025,30.5430002 C1.00400025,30.5230002 1.00400025,30.5010002 1.00400025,30.4810002 C1.00500025,30.4670002 1.00500025,30.4540002 1.00500025,30.4400002 C1.00500025,30.4170002 1.00600025,30.3940002 1.00600025,30.3720002 C1.00700025,30.3610002 1.00700025,30.3490002 1.00700025,30.3380002 C1.00800025,30.3130002 1.00800025,30.2890002 1.00900025,30.2630002 C1.00900025,30.2530002 1.00900025,30.2430002 1.01000025,30.2330002 C1.01100025,30.1640002 1.01300025,30.0950002 1.01500025,30.0250002 C1.01600025,30.0180002 1.01600025,30.0130002 1.01600025,30.0060002 C1.01700025,29.9780002 1.01800025,29.9510002 1.01900025,29.9230002 C1.01900025,29.9100002 1.02000025,29.9000002 1.02000025,29.8870002 C1.02100025,29.8650002 1.02200025,29.8440002 1.02300025,29.8230002 C1.02300025,29.8090002 1.02400025,29.7930002 1.02400025,29.7790002 C1.02500025,29.7580002 1.02600025,29.7380002 1.02700025,29.7180002 C1.02700025,29.7050002 1.02800025,29.6900002 1.02900025,29.6770002 C1.02900025,29.6560002 1.03000025,29.6360002 1.03100025,29.6140002 C1.03200025,29.6000002 1.03300025,29.5880002 1.03300025,29.5740002 C1.03400025,29.5530002 1.03500025,29.5300002 1.03600025,29.5080002 C1.03700025,29.4960002 1.03800025,29.4840002 1.03800025,29.4720002 C1.03900025,29.4460002 1.04100025,29.4190002 1.04200025,29.3930002 C1.04300025,29.3860002 1.04300025,29.3780002 1.04300025,29.3710002 C1.04700025,29.3010002 1.05100025,29.2310002 1.05500025,29.1610002 C1.05500025,29.1600002 1.05500025,29.1590002 1.05600025,29.1580002 C1.05800025,29.1250002 1.06000025,29.0910002 1.06200025,29.0590002 C1.06200025,29.0520002 1.06300025,29.0430002 1.06300025,29.0360002 C1.06500025,29.0090002 1.06700025,28.9820002 1.06800025,28.9550002 C1.06900025,28.9460002 1.07000025,28.9380002 1.07000025,28.9280002 C1.07200025,28.9020002 1.07400025,28.8760002 1.07600025,28.8500002 C1.07600025,28.8420002 1.07700025,28.8340002 1.07800025,28.8260002 C1.07900025,28.7990002 1.08100025,28.7730002 1.08300025,28.7470002 C1.08400025,28.7370002 1.08500025,28.7290002 1.08500025,28.7190002 C1.08700025,28.6930002 1.08900025,28.6650002 1.09100025,28.6390002 C1.09200025,28.6320002 1.09300025,28.6260002 1.09300025,28.6190002 C1.09500025,28.5890002 1.09800025,28.5570002 1.10000025,28.5270002 C1.10100025,28.5230002 1.10100025,28.5190002 1.10100025,28.5150002 C1.11000025,28.4100002 1.11900025,28.3040002 1.12900025,28.2000002 C1.12900025,28.1980002 1.12900025,28.1940002 1.13000025,28.1920002 C1.13200025,28.1610002 1.13500025,28.1300002 1.13800025,28.0990002 C1.13900025,28.0920002 1.14000025,28.0850002 1.14000025,28.0780002 C1.14300025,28.0500002 1.14600025,28.0230002 1.14900025,27.9950002 C1.14900025,27.9870002 1.15000025,27.9800002 1.15100025,27.9720002 C1.15300025,27.9460002 1.15600025,27.9190002 1.15900025,27.8930002 C1.16000025,27.8840002 1.16000025,27.8780002 1.16100025,27.8690002 C1.16400025,27.8390002 1.16700025,27.8100002 1.17100025,27.7800002 C1.17100025,27.7770002 1.17100025,27.7730002 1.17200025,27.7700002 C1.19400025,27.5590002 1.21900025,27.3490002 1.24600025,27.1400002 C1.24600025,27.1390002 1.24600025,27.1390002 1.24600025,27.1380002 C2.23900025,19.4140002 6.17000025,12.6100002 11.8820002,7.88100025 C7.58300025,13.0720002 5.00000025,19.7340002 5.00000025,26.9990002 C5.00000025,43.5680002 18.4310002,57.0000002 35.0000002,57.0000002 C42.2650002,57.0000002 48.9280002,54.4150002 54.1180002,50.1190002 C49.6040002,55.5700002 43.2000002,59.4000002 35.9100002,60.6000002 C35.9080002,60.6000002 35.9060002,60.6010002 35.9040002,60.6010002 C35.8720002,60.6060002 35.8400002,60.6120002 35.8080002,60.6170002 C35.8040002,60.6170002 35.8020002,60.6180002 35.7990002,60.6180002 C35.7680002,60.6230002 35.7360002,60.6280002 35.7050002,60.6330002 C35.7020002,60.6330002 35.6980002,60.6340002 35.6950002,60.6350002 C35.5230002,60.6620002 35.3490002,60.6870002 35.1770002,60.7110002 C35.1750002,60.7120002 35.1740002,60.7120002 35.1720002,60.7120002 C35.1400002,60.7170002 35.1080002,60.7210002 35.0770002,60.7250002 C35.0710002,60.7260002 35.0650002,60.7270002 35.0590002,60.7280002 C35.0310002,60.7320002 35.0030002,60.7350002 34.9740002,60.7390002 C34.9670002,60.7400002 34.9610002,60.7410002 34.9540002,60.7420002 C34.9270002,60.7450002 34.9010002,60.7490002 34.8740002,60.7520002 C34.8660002,60.7530002 34.8570002,60.7540002 34.8500002,60.7550002 C34.8210002,60.7590002 34.7940002,60.7620002 34.7650002,60.7660002 C34.7600002,60.7660002 34.7540002,60.7670002 34.7490002,60.7680002 C34.7200002,60.7720002 34.6900002,60.7750002 34.6600002,60.7790002 C34.6560002,60.7790002 34.6510002,60.7800002 34.6460002,60.7810002 C34.5770002,60.7890002 34.5070002,60.7970002 34.4380002,60.8050002 C34.4370002,60.8050002 34.4370002,60.8050002 34.4360002,60.8050002 C34.4030002,60.8090002 34.3690002,60.8130002 34.3360002,60.8170002 C34.3300002,60.8170002 34.3230002,60.8180002 34.3170002,60.8190002 C34.2900002,60.8220002 34.2620002,60.8250002 34.2350002,60.8280002 C34.2260002,60.8280002 34.2160002,60.8300002 34.2070002,60.8300002 C34.1820002,60.8330002 34.1580002,60.8360002 34.1320002,60.8380002 C34.1230002,60.8390002 34.1140002,60.8400002 34.1050002,60.8410002 C34.0800002,60.8440002 34.0560002,60.8460002 34.0310002,60.8490002 C34.0200002,60.8500002 34.0100002,60.8510002 33.9990002,60.8520002 C33.9740002,60.8540002 33.9510002,60.8570002 33.9260002,60.8590002 C33.9170002,60.8600002 33.9080002,60.8610002 33.8980002,60.8620002 C33.8710002,60.8640002 33.8450002,60.8670002 33.8180002,60.8690002 C33.8110002,60.8700002 33.8030002,60.8710002 33.7960002,60.8710002 C33.7270002,60.8780002 33.6590002,60.8840002 33.5900002,60.8900002 C33.5850002,60.8900002 33.5780002,60.8910002 33.5730002,60.8910002 C33.5450002,60.8940002 33.5160002,60.8960002 33.4870002,60.8980002 C33.4790002,60.8990002 33.4690002,60.9000002 33.4610002,60.9000002 C33.4350002,60.9030002 33.4110002,60.9050002 33.3850002,60.9070002 C33.3740002,60.9070002 33.3640002,60.9080002 33.3530002,60.9090002 C33.3290002,60.9110002 33.3050002,60.9130002 33.2820002,60.9140002 C33.2710002,60.9150002 33.2580002,60.9160002 33.2470002,60.9170002 C33.2250002,60.9190002 33.2040002,60.9200002 33.1830002,60.9220002 C33.1690002,60.9230002 33.1550002,60.9240002 33.1410002,60.9250002 C33.1210002,60.9260002 33.0990002,60.9280002 33.0780002,60.9290002 C33.0650002,60.9300002 33.0530002,60.9310002 33.0400002,60.9320002 C33.0170002,60.9330002 32.9940002,60.9350002 32.9700002,60.9360002 C32.9590002,60.9370002 32.9500002,60.9380002 32.9390002,60.9380002 C32.9120002,60.9400002 32.8860002,60.9420002 32.8600002,60.9430002 C32.8520002,60.9440002 32.8430002,60.9440002 32.8350002,60.9450002 C32.8010002,60.9470002 32.7670002,60.9490002 32.7330002,60.9510002 C32.7260002,60.9510002 32.7190002,60.9520002 32.7120002,60.9520002 C32.6850002,60.9530002 32.6570002,60.9550002 32.6300002,60.9560002 C32.6200002,60.9570002 32.6110002,60.9570002 32.6010002,60.9580002 C32.5760002,60.9590002 32.5510002,60.9610002 32.5270002,60.9620002 C32.5140002,60.9620002 32.5030002,60.9630002 32.4900002,60.9640002 C32.4690002,60.9650002 32.4470002,60.9660002 32.4260002,60.9670002 C32.4120002,60.9670002 32.3970002,60.9680002 32.3830002,60.9690002 C32.3630002,60.9700002 32.3450002,60.9700002 32.3250002,60.9710002 C32.3100002,60.9720002 32.2930002,60.9730002 32.2780002,60.9730002 C32.2580002,60.9740002 32.2380002,60.9750002 32.2170002,60.9760002 C32.2050002,60.9760002 32.1920002,60.9770002 32.1800002,60.9770002 C32.1580002,60.9780002 32.1350002,60.9790002 32.1130002,60.9800002 C32.1000002,60.9800002 32.0870002,60.9810002 32.0740002,60.9810002 C32.0500002,60.9820002 32.0260002,60.9830002 32.0030002,60.9840002 C31.9930002,60.9840002 31.9820002,60.9840002 31.9720002,60.9850002 C31.9410002,60.9860002 31.9100002,60.9870002 31.8780002,60.9870002 C31.8680002,60.9880002 31.8600002,60.9880002 31.8500002,60.9880002 C31.8210002,60.9890002 31.7930002,60.9900002 31.7640002,60.9900002 C31.7550002,60.9910002 31.7470002,60.9910002 31.7380002,60.9910002 C31.7140002,60.9920002 31.6890002,60.9920002 31.6640002,60.9930002 C31.6500002,60.9930002 31.6370002,60.9930002 31.6220002,60.9940002 C31.6010002,60.9940002 31.5800002,60.9950002 31.5590002,60.9950002 C31.5450002,60.9950002 31.5320002,60.9950002 31.5180002,60.9960002 C31.4980002,60.9960002 31.4780002,60.9960002 31.4580002,60.9970002 C31.4420002,60.9970002 31.4280002,60.9970002 31.4120002,60.9970002 C31.3920002,60.9970002 31.3730002,60.9980002 31.3530002,60.9980002 C31.3380002,60.9980002 31.3240002,60.9980002 31.3090002,60.9980002 C31.2880002,60.9990002 31.2680002,60.9990002 31.2470002,60.9990002 C31.2330002,60.9990002 31.2200002,60.9990002 31.2060002,60.9990002 C31.1830002,61.0000002 31.1610002,61.0000002 31.1380002,61.0000002 C31.1250002,61.0000002 31.1140002,61.0000002 31.1020002,61.0000002 C31.0680002,61.0000002 31.0330002,61.0000002 30.9990002,61.0000002" id="Fill-26657" fill="#C95256"></path>
            <path d="M9.78800025,52.2130002 L9.08000025,52.9200002 C15.1310002,58.9710002 23.0700002,62.0010002 31.0010002,62.0000002 C38.9310002,62.0010002 46.8700002,58.9710002 52.9210002,52.9200002 C58.9710002,46.8690002 62.0010002,38.9300002 62.0000002,31.0000002 C62.0010002,23.0700002 58.9710002,15.1300002 52.9210002,9.08000025 C46.8700002,3.02800025 38.9310002,-0.000999752475 31.0010002,2.47524894e-07 C23.0700002,-0.000999752475 15.1310002,3.02800025 9.08000025,9.08000025 C3.02900025,15.1300002 -0.000999752557,23.0700002 2.47443154e-07,31.0000002 C-0.000999752557,38.9300002 3.02900025,46.8690002 9.08100025,52.9200002 L9.78800025,52.2130002 L10.4950002,51.5050002 C4.83000025,45.8400002 2.00100025,38.4250002 2.00000025,31.0000002 C2.00100025,23.5750002 4.83000025,16.1590002 10.4950002,10.4940002 C16.1590002,4.82900025 23.5750002,2.00100025 31.0010002,2.00000025 C38.4260002,2.00100025 45.8410002,4.82900025 51.5060002,10.4940002 C57.1700002,16.1590002 59.9980002,23.5750002 59.9990002,31.0000002 C59.9980002,38.4250002 57.1700002,45.8400002 51.5060002,51.5060002 C45.8420002,57.1700002 38.4260002,59.9980002 31.0010002,59.9990002 C23.5750002,59.9980002 16.1590002,57.1700002 10.4950002,51.5060002 L9.78800025,52.2130002" id="Fill-26658" fill="#2C3C58"></path>
            <path d="M41.2910002,19.2940002 L19.2910002,41.2940002 C18.9010002,41.6840002 18.9010002,42.3170002 19.2910002,42.7080002 C19.6820002,43.0980002 20.3150002,43.0980002 20.7060002,42.7080002 L42.7060002,20.7080002 C43.0960002,20.3170002 43.0960002,19.6840002 42.7060002,19.2940002 C42.3150002,18.9030002 41.6820002,18.9030002 41.2910002,19.2940002" id="Fill-26659" fill="#2C3C58"></path>
            <path d="M42.7060002,41.2940002 L20.7070002,19.2930002 C20.3160002,18.9020002 19.6830002,18.9020002 19.2920002,19.2930002 C18.9020002,19.6830002 18.9020002,20.3160002 19.2920002,20.7070002 L41.2910002,42.7080002 C41.6820002,43.0980002 42.3150002,43.0980002 42.7060002,42.7080002 C43.0960002,42.3170002 43.0960002,41.6840002 42.7060002,41.2940002" id="Fill-26660" fill="#2C3C58"></path>
        </g>
    </g>
</svg>