<?xml version="1.0" encoding="UTF-8"?>
<svg width="62px" height="62px" viewBox="0 0 62 62" version="1.1" xmlns="http://www.w3.org/2000/svg" xmlns:xlink="http://www.w3.org/1999/xlink">
    <!-- Generator: Sketch 50.2 (55047) - http://www.bohemiancoding.com/sketch -->
    <title>Group 11</title>
    <desc>Created with Sketch.</desc>
    <defs></defs>
    <g id="Page-1" stroke="none" stroke-width="1" fill="none" fill-rule="evenodd">
        <g id="Group-11">
            <path d="M61.0000002,30.9990002 C61.0000002,47.5670002 47.5680002,60.9990002 31.0000002,60.9990002 C14.4310002,60.9990002 1.00000025,47.5670002 1.00000025,30.9990002 C1.00000025,14.4300002 14.4310002,0.999000248 31.0000002,0.999000248 C47.5680002,0.999000248 61.0000002,14.4300002 61.0000002,30.9990002" id="Fill-26661" fill="#6BBC8B"></path>
            <path d="M31.0000002,60.9990002 C14.7080002,60.9990002 1.45000025,48.0120002 1.01100025,31.8270002 C1.00700025,31.6750002 1.00400025,31.5250002 1.00200025,31.3730002 C1.00000025,31.2490002 1.00000025,31.1230002 1.00000025,30.9990002 C1.00000025,30.9650002 1.00000025,30.9300002 1.00000025,30.8960002 C1.00000025,30.8840002 1.00000025,30.8730002 1.00000025,30.8610002 C1.00000025,30.8370002 1.00000025,30.8150002 1.00000025,30.7920002 C1.00000025,30.7780002 1.00100025,30.7670002 1.00100025,30.7540002 C1.00100025,30.7320002 1.00100025,30.7100002 1.00100025,30.6880002 C1.00100025,30.6740002 1.00200025,30.6590002 1.00200025,30.6450002 C1.00200025,30.6250002 1.00200025,30.6050002 1.00200025,30.5850002 C1.00300025,30.5710002 1.00300025,30.5560002 1.00300025,30.5420002 C1.00300025,30.5220002 1.00400025,30.5000002 1.00400025,30.4800002 C1.00400025,30.4660002 1.00400025,30.4530002 1.00500025,30.4390002 C1.00500025,30.4160002 1.00600025,30.3930002 1.00600025,30.3710002 C1.00600025,30.3600002 1.00700025,30.3480002 1.00700025,30.3370002 C1.00700025,30.3120002 1.00800025,30.2880002 1.00900025,30.2620002 C1.00900025,30.2520002 1.00900025,30.2420002 1.00900025,30.2320002 C1.01100025,30.1630002 1.01300025,30.0940002 1.01500025,30.0240002 C1.01500025,30.0170002 1.01600025,30.0120002 1.01600025,30.0050002 C1.01700025,29.9770002 1.01800025,29.9500002 1.01900025,29.9220002 C1.01900025,29.9090002 1.01900025,29.8990002 1.02000025,29.8860002 C1.02100025,29.8640002 1.02100025,29.8430002 1.02200025,29.8220002 C1.02300025,29.8080002 1.02300025,29.7920002 1.02400025,29.7780002 C1.02500025,29.7570002 1.02600025,29.7370002 1.02700025,29.7170002 C1.02700025,29.7040002 1.02800025,29.6890002 1.02800025,29.6760002 C1.02900025,29.6550002 1.03000025,29.6350002 1.03100025,29.6130002 C1.03200025,29.5990002 1.03200025,29.5870002 1.03300025,29.5730002 C1.03400025,29.5520002 1.03500025,29.5290002 1.03600025,29.5070002 C1.03700025,29.4950002 1.03700025,29.4830002 1.03800025,29.4710002 C1.03900025,29.4450002 1.04100025,29.4180002 1.04200025,29.3920002 C1.04200025,29.3850002 1.04300025,29.3770002 1.04300025,29.3700002 C1.04700025,29.3000002 1.05100025,29.2300002 1.05500025,29.1600002 C1.05500025,29.1590002 1.05500025,29.1580002 1.05500025,29.1570002 C1.05700025,29.1240002 1.05900025,29.0900002 1.06100025,29.0580002 C1.06200025,29.0510002 1.06200025,29.0420002 1.06300025,29.0350002 C1.06500025,29.0080002 1.06600025,28.9810002 1.06800025,28.9540002 C1.06900025,28.9450002 1.06900025,28.9370002 1.07000025,28.9270002 C1.07200025,28.9010002 1.07400025,28.8750002 1.07500025,28.8490002 C1.07600025,28.8410002 1.07700025,28.8330002 1.07700025,28.8250002 C1.07900025,28.7980002 1.08100025,28.7720002 1.08300025,28.7460002 C1.08400025,28.7360002 1.08400025,28.7280002 1.08500025,28.7180002 C1.08700025,28.6920002 1.08900025,28.6640002 1.09100025,28.6380002 C1.09200025,28.6310002 1.09200025,28.6250002 1.09300025,28.6180002 C1.09500025,28.5880002 1.09800025,28.5560002 1.10000025,28.5260002 C1.10000025,28.5220002 1.10100025,28.5180002 1.10100025,28.5140002 C1.11000025,28.4090002 1.11900025,28.3030002 1.12900025,28.1990002 C1.12900025,28.1970002 1.12900025,28.1930002 1.12900025,28.1910002 C1.13200025,28.1600002 1.13500025,28.1290002 1.13800025,28.0980002 C1.13900025,28.0910002 1.13900025,28.0840002 1.14000025,28.0770002 C1.14300025,28.0490002 1.14500025,28.0220002 1.14800025,27.9940002 C1.14900025,27.9860002 1.15000025,27.9790002 1.15100025,27.9710002 C1.15300025,27.9450002 1.15600025,27.9180002 1.15900025,27.8920002 C1.15900025,27.8830002 1.16000025,27.8770002 1.16100025,27.8680002 C1.16400025,27.8380002 1.16700025,27.8090002 1.17000025,27.7790002 C1.17100025,27.7760002 1.17100025,27.7720002 1.17200025,27.7690002 C1.19400025,27.5580002 1.21900025,27.3480002 1.24600025,27.1390002 C1.24600025,27.1380002 1.24600025,27.1380002 1.24600025,27.1370002 C2.23800025,19.4130002 6.16900025,12.6090002 11.8810002,7.88000025 C7.58400025,13.0710002 4.99900025,19.7330002 4.99900025,26.9980002 C4.99900025,43.5670002 18.4310002,56.9990002 34.9990002,56.9990002 C42.2650002,56.9990002 48.9270002,54.4140002 54.1180002,50.1180002 C49.4320002,55.7780002 42.7090002,59.6890002 35.0710002,60.7250002 C35.0700002,60.7250002 35.0710002,60.7250002 35.0700002,60.7250002 C35.0360002,60.7300002 35.0020002,60.7340002 34.9680002,60.7390002 C34.9670002,60.7390002 34.9640002,60.7390002 34.9630002,60.7400002 C34.9310002,60.7440002 34.8980002,60.7480002 34.8670002,60.7520002 C34.8630002,60.7530002 34.8600002,60.7530002 34.8560002,60.7530002 C34.8220002,60.7580002 34.7890002,60.7620002 34.7550002,60.7660002 C34.6140002,60.7840002 34.4740002,60.8000002 34.3330002,60.8160002 C34.3320002,60.8160002 34.3310002,60.8160002 34.3300002,60.8160002 C34.2970002,60.8200002 34.2650002,60.8230002 34.2320002,60.8270002 C34.2260002,60.8280002 34.2220002,60.8280002 34.2160002,60.8290002 C34.1860002,60.8320002 34.1570002,60.8350002 34.1270002,60.8380002 C34.1220002,60.8390002 34.1180002,60.8390002 34.1120002,60.8400002 C34.0830002,60.8430002 34.0540002,60.8450002 34.0260002,60.8480002 C34.0190002,60.8490002 34.0110002,60.8500002 34.0040002,60.8500002 C33.9760002,60.8530002 33.9470002,60.8560002 33.9190002,60.8590002 C33.9130002,60.8590002 33.9080002,60.8600002 33.9020002,60.8600002 C33.8710002,60.8630002 33.8400002,60.8660002 33.8090002,60.8690002 C33.8050002,60.8700002 33.8030002,60.8700002 33.7990002,60.8700002 C33.6940002,60.8800002 33.5900002,60.8890002 33.4850002,60.8980002 C33.4790002,60.8980002 33.4750002,60.8980002 33.4690002,60.8990002 C33.4410002,60.9010002 33.4120002,60.9030002 33.3830002,60.9060002 C33.3750002,60.9060002 33.3660002,60.9070002 33.3580002,60.9080002 C33.3320002,60.9100002 33.3050002,60.9120002 33.2790002,60.9140002 C33.2700002,60.9140002 33.2600002,60.9150002 33.2510002,60.9160002 C33.2270002,60.9180002 33.2040002,60.9190002 33.1800002,60.9210002 C33.1680002,60.9220002 33.1560002,60.9230002 33.1440002,60.9240002 C33.1210002,60.9250002 33.0980002,60.9270002 33.0740002,60.9280002 C33.0640002,60.9290002 33.0540002,60.9300002 33.0430002,60.9310002 C33.0170002,60.9320002 32.9910002,60.9340002 32.9650002,60.9360002 C32.9570002,60.9360002 32.9490002,60.9370002 32.9410002,60.9370002 C32.9110002,60.9390002 32.8830002,60.9410002 32.8530002,60.9430002 C32.8470002,60.9430002 32.8430002,60.9430002 32.8370002,60.9440002 C32.8020002,60.9460002 32.7670002,60.9480002 32.7330002,60.9500002 C32.7300002,60.9500002 32.7250002,60.9500002 32.7220002,60.9500002 C32.6920002,60.9520002 32.6600002,60.9540002 32.6290002,60.9560002 C32.6210002,60.9560002 32.6140002,60.9560002 32.6060002,60.9570002 C32.5790002,60.9580002 32.5520002,60.9600002 32.5260002,60.9610002 C32.5150002,60.9610002 32.5040002,60.9620002 32.4930002,60.9620002 C32.4700002,60.9640002 32.4480002,60.9650002 32.4250002,60.9660002 C32.4120002,60.9660002 32.3990002,60.9670002 32.3850002,60.9680002 C32.3650002,60.9690002 32.3440002,60.9690002 32.3240002,60.9700002 C32.3090002,60.9710002 32.2950002,60.9720002 32.2800002,60.9720002 C32.2590002,60.9730002 32.2370002,60.9740002 32.2160002,60.9750002 C32.2040002,60.9750002 32.1930002,60.9760002 32.1810002,60.9760002 C32.1580002,60.9770002 32.1350002,60.9780002 32.1120002,60.9790002 C32.1000002,60.9790002 32.0870002,60.9800002 32.0750002,60.9800002 C32.0500002,60.9810002 32.0250002,60.9820002 32.0010002,60.9830002 C31.9920002,60.9830002 31.9820002,60.9830002 31.9730002,60.9840002 C31.9400002,60.9850002 31.9070002,60.9860002 31.8740002,60.9870002 C31.8670002,60.9870002 31.8590002,60.9870002 31.8520002,60.9870002 C31.8230002,60.9880002 31.7930002,60.9890002 31.7640002,60.9890002 C31.7560002,60.9900002 31.7480002,60.9900002 31.7400002,60.9900002 C31.7150002,60.9910002 31.6900002,60.9910002 31.6650002,60.9920002 C31.6500002,60.9920002 31.6380002,60.9920002 31.6230002,60.9930002 C31.6020002,60.9930002 31.5810002,60.9940002 31.5590002,60.9940002 C31.5450002,60.9940002 31.5330002,60.9940002 31.5190002,60.9950002 C31.4990002,60.9950002 31.4780002,60.9950002 31.4580002,60.9960002 C31.4430002,60.9960002 31.4280002,60.9960002 31.4130002,60.9960002 C31.3930002,60.9960002 31.3730002,60.9970002 31.3530002,60.9970002 C31.3380002,60.9970002 31.3240002,60.9970002 31.3090002,60.9970002 C31.2890002,60.9980002 31.2680002,60.9980002 31.2480002,60.9980002 C31.2340002,60.9980002 31.2210002,60.9980002 31.2070002,60.9980002 C31.1830002,60.9990002 31.1610002,60.9990002 31.1380002,60.9990002 C31.1260002,60.9990002 31.1150002,60.9990002 31.1030002,60.9990002 C31.0690002,60.9990002 31.0340002,60.9990002 31.0000002,60.9990002" id="Fill-26663" fill="#4AB383"></path>
            <path d="M9.78600025,52.2110002 L9.07900025,52.9180002 C15.1290002,58.9700002 23.0690002,62.0000002 30.9990002,61.9990002 C38.9290002,62.0000002 46.8690002,58.9700002 52.9190002,52.9180002 C58.9710002,46.8680002 62.0010002,38.9290002 62.0000002,30.9990002 C62.0010002,23.0690002 58.9710002,15.1290002 52.9190002,9.07800025 C46.8690002,3.02800025 38.9290002,-0.000999752475 30.9990002,2.47524896e-07 C23.0690002,-0.000999752475 15.1290002,3.02800025 9.07900025,9.07800025 C3.02800025,15.1290002 -0.000999752475,23.0690002 2.47524781e-07,30.9990002 C-0.000999752475,38.9290002 3.02800025,46.8680002 9.07900025,52.9180002 L10.4930002,51.5040002 C4.82900025,45.8390002 2.00100025,38.4240002 2.00000025,30.9990002 C2.00100025,23.5740002 4.82900025,16.1580002 10.4930002,10.4920002 C16.1580002,4.82900025 23.5740002,2.00100025 30.9990002,2.00000025 C38.4240002,2.00100025 45.8400002,4.82900025 51.5050002,10.4920002 C57.1700002,16.1580002 59.9980002,23.5740002 59.9990002,30.9990002 C59.9980002,38.4240002 57.1700002,45.8390002 51.5050002,51.5040002 C45.8400002,57.1690002 38.4240002,59.9980002 30.9990002,59.9990002 C23.5740002,59.9980002 16.1580002,57.1690002 10.4930002,51.5040002 L9.78600025,52.2110002" id="Fill-26664" fill="#2C3C58"></path>
            <path d="M19.2900002,31.7210002 L28.2820002,40.7130002 C28.4680002,40.8990002 28.7260002,41.0060002 28.9890002,41.0060002 C29.2530002,41.0060002 29.5100002,40.8990002 29.6960002,40.7130002 L45.7070002,24.7010002 C46.0980002,24.3110002 46.0980002,23.6780002 45.7070002,23.2870002 C45.3170002,22.8970002 44.6830002,22.8970002 44.2930002,23.2870002 L28.9890002,38.5920002 L20.7040002,30.3070002 C20.3140002,29.9160002 19.6800002,29.9160002 19.2900002,30.3070002 C18.8990002,30.6970002 18.8990002,31.3300002 19.2900002,31.7210002" id="Fill-26665" fill="#2C3C58"></path>
        </g>
    </g>
</svg>