<?xml version="1.0" encoding="UTF-8"?>
<svg width="65px" height="56px" viewBox="0 0 65 56" version="1.1" xmlns="http://www.w3.org/2000/svg" xmlns:xlink="http://www.w3.org/1999/xlink">
    <!-- Generator: Sketch 50.2 (55047) - http://www.bohemiancoding.com/sketch -->
    <title>Group 3</title>
    <desc>Created with Sketch.</desc>
    <defs></defs>
    <g id="Page-1" stroke="none" stroke-width="1" fill="none" fill-rule="evenodd">
        <g id="Group-3">
            <path d="M15.25,24 L12.25,24 C12.112,24 12,24.11 12,24.25 C12,24.39 12.112,24.5 12.25,24.5 L15.25,24.5 C15.388,24.5 15.5,24.39 15.5,24.25 C15.5,24.11 15.388,24 15.25,24" id="Fill-7957" fill="#8ACED3"></path>
            <path d="M36.25,24 L33.25,24 C33.112,24 33,24.11 33,24.25 C33,24.39 33.112,24.5 33.25,24.5 L36.25,24.5 C36.388,24.5 36.5,24.39 36.5,24.25 C36.5,24.11 36.388,24 36.25,24" id="Fill-8024" fill="#8ACED3"></path>
            <path d="M29.25,24 L26.25,24 C26.112,24 26,24.11 26,24.25 C26,24.39 26.112,24.5 26.25,24.5 L29.25,24.5 C29.388,24.5 29.5,24.39 29.5,24.25 C29.5,24.11 29.388,24 29.25,24" id="Fill-8027" fill="#8ACED3"></path>
            <path d="M43.25,24 L40.25,24 C40.112,24 40,24.11 40,24.25 C40,24.39 40.112,24.5 40.25,24.5 L43.25,24.5 C43.388,24.5 43.5,24.39 43.5,24.25 C43.5,24.11 43.388,24 43.25,24" id="Fill-8028" fill="#8ACED3"></path>
            <path d="M22.25,24 L19.25,24 C19.112,24 19,24.11 19,24.25 C19,24.39 19.112,24.5 19.25,24.5 L22.25,24.5 C22.388,24.5 22.5,24.39 22.5,24.25 C22.5,24.11 22.388,24 22.25,24" id="Fill-8032" fill="#8ACED3"></path>
            <path d="M64.25,24 L61.25,24 C61.112,24 61,24.11 61,24.25 C61,24.39 61.112,24.5 61.25,24.5 L64.25,24.5 C64.388,24.5 64.5,24.39 64.5,24.25 C64.5,24.11 64.388,24 64.25,24" id="Fill-8042" fill="#8ACED3"></path>
            <path d="M57.25,24 L54.25,24 C54.112,24 54,24.11 54,24.25 C54,24.39 54.112,24.5 54.25,24.5 L57.25,24.5 C57.388,24.5 57.5,24.39 57.5,24.25 C57.5,24.11 57.388,24 57.25,24" id="Fill-8043" fill="#8ACED3"></path>
            <path d="M50.25,24 L47.25,24 C47.112,24 47,24.11 47,24.25 C47,24.39 47.112,24.5 47.25,24.5 L50.25,24.5 C50.388,24.5 50.5,24.39 50.5,24.25 C50.5,24.11 50.388,24 50.25,24" id="Fill-8045" fill="#8ACED3"></path>
            <path d="M46.25,34.5 L49.25,34.5 C49.388,34.5 49.5,34.39 49.5,34.25 C49.5,34.12 49.388,34 49.25,34 L46.25,34 C46.112,34 46,34.12 46,34.25 C46,34.39 46.112,34.5 46.25,34.5" id="Fill-8108" fill="#8ACED3"></path>
            <path d="M53.25,34.5 L56.25,34.5 C56.388,34.5 56.5,34.39 56.5,34.25 C56.5,34.12 56.388,34 56.25,34 L53.25,34 C53.112,34 53,34.12 53,34.25 C53,34.39 53.112,34.5 53.25,34.5" id="Fill-8111" fill="#8ACED3"></path>
            <path d="M39.25,34.5 L42.25,34.5 C42.388,34.5 42.5,34.39 42.5,34.25 C42.5,34.12 42.388,34 42.25,34 L39.25,34 C39.112,34 39,34.12 39,34.25 C39,34.39 39.112,34.5 39.25,34.5" id="Fill-8112" fill="#8ACED3"></path>
            <path d="M18.25,34.5 L21.25,34.5 C21.388,34.5 21.5,34.39 21.5,34.25 C21.5,34.12 21.388,34 21.25,34 L18.25,34 C18.112,34 18,34.12 18,34.25 C18,34.39 18.112,34.5 18.25,34.5" id="Fill-8114" fill="#8ACED3"></path>
            <path d="M25.25,34.5 L28.25,34.5 C28.388,34.5 28.5,34.39 28.5,34.25 C28.5,34.12 28.388,34 28.25,34 L25.25,34 C25.112,34 25,34.12 25,34.25 C25,34.39 25.112,34.5 25.25,34.5" id="Fill-8116" fill="#8ACED3"></path>
            <path d="M32.25,34.5 L35.25,34.5 C35.388,34.5 35.5,34.39 35.5,34.25 C35.5,34.12 35.388,34 35.25,34 L32.25,34 C32.112,34 32,34.12 32,34.25 C32,34.39 32.112,34.5 32.25,34.5" id="Fill-8117" fill="#8ACED3"></path>
            <path d="M60.25,34.5 L63.25,34.5 C63.388,34.5 63.5,34.39 63.5,34.25 C63.5,34.12 63.388,34 63.25,34 L60.25,34 C60.112,34 60,34.12 60,34.25 C60,34.39 60.112,34.5 60.25,34.5" id="Fill-8120" fill="#8ACED3"></path>
            <path d="M11.25,34.5 L14.25,34.5 C14.388,34.5 14.5,34.39 14.5,34.25 C14.5,34.12 14.388,34 14.25,34 L11.25,34 C11.112,34 11,34.12 11,34.25 C11,34.39 11.112,34.5 11.25,34.5" id="Fill-8144" fill="#8ACED3"></path>
            <path d="M22.25,44 L19.25,44 C19.112,44 19,44.12 19,44.25 C19,44.39 19.112,44.5 19.25,44.5 L22.25,44.5 C22.388,44.5 22.5,44.39 22.5,44.25 C22.5,44.12 22.388,44 22.25,44" id="Fill-8381" fill="#8ACED3"></path>
            <path d="M15.25,44 L12.25,44 C12.112,44 12,44.12 12,44.25 C12,44.39 12.112,44.5 12.25,44.5 L15.25,44.5 C15.388,44.5 15.5,44.39 15.5,44.25 C15.5,44.12 15.388,44 15.25,44" id="Fill-8385" fill="#8ACED3"></path>
            <path d="M29.25,44 L26.25,44 C26.112,44 26,44.12 26,44.25 C26,44.39 26.112,44.5 26.25,44.5 L29.25,44.5 C29.387,44.5 29.5,44.39 29.5,44.25 C29.5,44.12 29.387,44 29.25,44" id="Fill-8390" fill="#8ACED3"></path>
            <path d="M57.25,44 L54.25,44 C54.112,44 54,44.12 54,44.25 C54,44.39 54.112,44.5 54.25,44.5 L57.25,44.5 C57.387,44.5 57.5,44.39 57.5,44.25 C57.5,44.12 57.387,44 57.25,44" id="Fill-8412" fill="#8ACED3"></path>
            <path d="M64.25,44 L61.25,44 C61.112,44 61,44.12 61,44.25 C61,44.39 61.112,44.5 61.25,44.5 L64.25,44.5 C64.388,44.5 64.5,44.39 64.5,44.25 C64.5,44.12 64.388,44 64.25,44" id="Fill-8422" fill="#8ACED3"></path>
            <path d="M43.25,44 L40.25,44 C40.112,44 40,44.12 40,44.25 C40,44.39 40.112,44.5 40.25,44.5 L43.25,44.5 C43.388,44.5 43.5,44.39 43.5,44.25 C43.5,44.12 43.388,44 43.25,44" id="Fill-8423" fill="#8ACED3"></path>
            <path d="M36.25,44 L33.25,44 C33.112,44 33,44.12 33,44.25 C33,44.39 33.112,44.5 33.25,44.5 L36.25,44.5 C36.388,44.5 36.5,44.39 36.5,44.25 C36.5,44.12 36.388,44 36.25,44" id="Fill-8427" fill="#8ACED3"></path>
            <path d="M50.25,44 L47.25,44 C47.112,44 47,44.12 47,44.25 C47,44.39 47.112,44.5 47.25,44.5 L50.25,44.5 C50.388,44.5 50.5,44.39 50.5,44.25 C50.5,44.12 50.388,44 50.25,44" id="Fill-8432" fill="#8ACED3"></path>
            <path d="M34.998,38.99 L61,38.99 L61,17 C61,14.79 59.207,13 57,13 L5,13 C2.789,13 1,14.79 1,17 L1,38.99 L26.995,38.99 L26.995,35 L34.998,35 L34.998,38.99" id="Fill-20861" fill="#C98D80"></path>
            <path d="M61.565,20.04 C61.565,19.97 61.563,19.89 61.559,19.82 L61.559,17.05 C61.559,14.84 59.766,13.05 57.559,13.05 L5.559,13.05 C4.007,13.05 2.663,13.93 2,15.22 C2.66,13.91 4.003,13 5.559,13 L57.559,13 C59.766,13 61.565,14.84 61.565,17.05 L61.565,20.04" id="Fill-20862" fill="#FFFFFE"></path>
            <path d="M1,19.99 L1,17 C1,16.34 1.157,15.72 1.435,15.17 C2.098,13.88 3.442,13 4.994,13 L56.994,13 C59.201,13 60.994,14.79 60.994,17 L60.994,19.77 C60.876,17.66 59.125,15.95 56.994,15.95 L4.994,15.95 C2.783,15.95 1,17.78 1,19.99" id="Fill-20863" fill="#D4A398"></path>
            <polyline id="Fill-20864" fill="#BF7567" points="59 39 59 55 3 55 3 39 26.997 39 26.997 43.01 35 43.01 35 39 59 39"></polyline>
            <polyline id="Fill-20865" fill="#D5D6DF" points="59 45 58.992 45 58.992 39.04 34.992 39.04 34.992 43.05 26.989 43.05 26.989 39.04 3 39.04 26.989 39.04 26.989 39 34.992 39 34.992 39.04 59 39.04 59 45"></polyline>
            <path d="M34.992,39.04 L59,39.04 L59,39 L34.992,39 L34.992,39.04 Z M3,39.04 L26.989,39.04 L26.989,39 L3,39 L3,39.04 Z" id="Fill-20866" fill="#AA7879"></path>
            <polyline id="Fill-20867" fill="#A16465" points="58.992 44.96 3 44.96 3 39 26.989 39 26.989 43.01 34.992 43.01 34.992 39 58.992 39 58.992 44.96"></polyline>
            <polygon id="Fill-20868" fill="#F9C767" points="27 43 35 43 35 35 27 35"></polygon>
            <path d="M22,13.08 L22,9 C22.001,7.06 22.783,5.32 24.051,4.05 C25.321,2.78 27.064,2 29.001,2 L33.001,2 C34.937,2 36.68,2.78 37.95,4.05 C39.218,5.32 40,7.06 40,9 L40.001,12.92 C40.001,13.47 40.448,13.92 41.001,13.92 C41.553,13.92 42.001,13.47 42.001,12.92 L42,9 C42,4.03 37.971,0 33.001,0 L29.001,0 C24.03,0 20.001,4.03 20,9 L20.001,13.08 C20.001,13.64 20.448,14.08 21.001,14.08 C21.553,14.08 22.001,13.64 22.001,13.08" id="Fill-20869" fill="#2C3C58"></path>
            <path d="M34.999,39.99 L61.001,39.99 C61.264,39.99 61.521,39.89 61.708,39.7 C61.894,39.51 62.001,39.26 62.001,38.99 L62.001,17 C62,14.24 59.76,12 57.001,12 L5.001,12 C2.237,12 0.001,14.24 0,17 L0,38.99 C0,39.26 0.107,39.51 0.293,39.7 C0.48,39.89 0.737,39.99 1.001,39.99 L26.997,39.99 C27.549,39.99 27.997,39.55 27.997,38.99 C27.997,38.44 27.549,37.99 26.997,37.99 L2.001,37.99 L2.001,17 C2.004,15.34 3.342,14 5.001,14 L57.001,14 C58.655,14 59.997,15.34 60,17 L60,37.99 L34.999,37.99 C34.446,37.99 33.999,38.44 33.999,38.99 C33.999,39.55 34.446,39.99 34.999,39.99" id="Fill-20870" fill="#2C3C58"></path>
            <path d="M58,39 L58,54 L4,54 L4,39 C4,38.45 3.552,38 3,38 C2.447,38 2,38.45 2,39 L2,55 C2,55.27 2.106,55.52 2.292,55.71 C2.479,55.9 2.736,56 3,56 L59,56 C59.263,56 59.52,55.9 59.707,55.71 C59.893,55.52 60,55.27 60,55 L60,39 C60,38.45 59.552,38 59,38 C58.447,38 58,38.45 58,39" id="Fill-20871" fill="#2C3C58"></path>
            <path d="M35,43 L35,42 L28,42 L28,36 L34,36 L34,43 L35,43 L35,42 L35,43 L36,43 L36,35 C36,34.73 35.893,34.47 35.707,34.29 C35.52,34.1 35.263,34 35,34 L27,34 C26.736,34 26.479,34.1 26.292,34.29 C26.106,34.47 26,34.73 26,35 L26,43 C26,43.26 26.106,43.52 26.292,43.7 C26.479,43.89 26.736,44 27,44 L35,44 C35.263,44 35.52,43.89 35.707,43.7 C35.893,43.52 36,43.26 36,43 L35,43" id="Fill-20872" fill="#2C3C58"></path>
        </g>
    </g>
</svg>