<?xml version="1.0" encoding="UTF-8"?>
<svg width="62px" height="62px" viewBox="0 0 62 62" version="1.1" xmlns="http://www.w3.org/2000/svg" xmlns:xlink="http://www.w3.org/1999/xlink">
    <!-- Generator: Sketch 50.2 (55047) - http://www.bohemiancoding.com/sketch -->
    <title>Group 5</title>
    <desc>Created with Sketch.</desc>
    <defs></defs>
    <g id="Page-1" stroke="none" stroke-width="1" fill="none" fill-rule="evenodd">
        <g id="Group-5">
            <path d="M52.994,31.16 L53.006,3 C53.006,1.9 52.105,0.96 51,0.96 L3,0.96 C1.894,0.96 1.006,1.9 1.006,3 L1.006,47 C1.006,48.11 1.894,48.96 3,48.96 L29.507,48.96 C29.193,47.7 29,46.37 29,44.99 C29,36.16 36.164,29 44.999,29 C47.913,29 50.641,29.79 52.994,31.16 Z" id="Fill-18019" fill="#FFFFFF"></path>
            <path d="M3.006,48.96 C1.902,48.96 1.006,48.07 1.006,46.96 L1.006,3 C1.006,2.01 1.721,1.16 2.667,0.99 C2.669,0.99 2.671,0.99 2.673,0.99 C2.676,0.99 2.678,0.99 2.681,0.99 C2.787,0.97 2.895,0.96 3.006,0.96 C4.111,0.96 5.006,1.86 5.006,2.96 L5.006,46.96 C5.006,48.07 4.111,48.96 3.006,48.96" id="Fill-18021" fill="#E6E6E6"></path>
            <path d="M52.99,31.16 C50.637,29.79 47.913,29 44.999,29 C36.164,29 29,36.17 29,45 C29,46.38 29.193,47.72 29.521,48.99 C31.297,55.9 37.544,61 44.999,61 C53.835,61 60.999,53.84 60.999,45 C60.999,39.08 57.773,33.92 52.99,31.16" id="Fill-18022" fill="#5CB77F"></path>
            <path d="M61,45 L59.999,45 C59.999,49.15 58.322,52.89 55.606,55.61 C52.888,58.33 49.145,60 45,60 C40.854,60 37.111,58.33 34.393,55.61 C31.677,52.89 30,49.15 30,45 C30,40.86 31.677,37.12 34.393,34.4 C37.111,31.68 40.855,30 45,30 C49.144,30 52.888,31.68 55.606,34.4 C58.322,37.12 59.999,40.86 60,45 L61.999,45 C61.999,35.61 54.388,28 45,28 C35.611,28 28,35.61 28,45 C28,54.4 35.611,62 45,62 C54.388,62 61.999,54.4 62,45 L61,45" id="Fill-18029" fill="#2C3C58"></path>
            <path d="M29.507,48 L3,48 C2.446,48 2.001,47.56 1.999,47 L1.999,3 C2.001,2.45 2.446,2 3,2 L51,2 C51.553,2 51.998,2.45 52,3 L51.999,31.15 C51.999,31.7 52.447,32.15 53,32.15 C53.552,32.15 54,31.7 54,31.15 L54,3 C53.999,1.35 52.657,0 51,0 L3,0 C1.342,0 0,1.35 0,3 L0,47 C0,48.66 1.342,50 3,50 L29.507,50 C30.059,50 30.507,49.56 30.507,49 C30.507,48.45 30.059,48 29.507,48" id="Fill-18030" fill="#2C3C58"></path>
            <path d="M1,34 L34.425,34 C34.978,34 35.425,33.56 35.425,33 C35.425,32.45 34.978,32 34.425,32 L1,32 C0.447,32 0,32.45 0,33 C0,33.56 0.447,34 1,34" id="Fill-18031" fill="#2C3C58"></path>
            <path d="M45,24 L29,24 C28.447,24 28,24.45 28,25 C28,25.56 28.447,26 29,26 L45,26 C45.552,26 46,25.56 46,25 C46,24.45 45.552,24 45,24" id="Fill-18032" fill="#2C3C58"></path>
            <path d="M45,8 L29,8 C28.447,8 28,8.45 28,9 C28,9.56 28.447,10 29,10 L45,10 C45.552,10 46,9.56 46,9 C46,8.45 45.552,8 45,8" id="Fill-18033" fill="#2C3C58"></path>
            <path d="M1,18 L53,18 C53.552,18 54,17.56 54,17 C54,16.45 53.552,16 53,16 L1,16 C0.447,16 0,16.45 0,17 C0,17.56 0.447,18 1,18" id="Fill-18034" fill="#2C3C58"></path>
            <path d="M11,9 L9.999,9 L11.999,9 C11.998,7.9 11.108,7 10,7 C8.893,7.01 8.002,7.9 8,9 C8.002,10.11 8.893,11 10,11 C11.108,11 11.998,10.1 11.999,9 L11,9" id="Fill-18035" fill="#2C3C58"></path>
            <path d="M11,25 L9.999,25 L11.999,25 C11.998,23.9 11.108,23 10,23 C8.893,23.01 8.002,23.9 8,25 C8.002,26.11 8.893,27 10,27 C11.108,27 11.998,26.1 11.999,25 L11,25" id="Fill-18036" fill="#2C3C58"></path>
            <path d="M11,41 L9.999,41 L11.999,41 C11.998,39.9 11.108,39 10,39 C8.893,39.01 8.002,39.9 8,41 C8.002,42.11 8.893,43 10,43 C11.108,43 11.998,42.1 11.999,41 L11,41" id="Fill-18037" fill="#2C3C58"></path>
            <path d="M51.268,40.43 L43.976,48.64 L39.73,44.39 C39.34,44 38.707,44 38.316,44.39 C37.925,44.78 37.925,45.41 38.316,45.8 L43.312,50.8 C43.506,51 43.774,51.11 44.048,51.1 C44.323,51.09 44.584,50.97 44.767,50.76 L52.763,41.76 C53.129,41.35 53.092,40.72 52.679,40.35 C52.266,39.98 51.634,40.02 51.268,40.43" id="Fill-18038" fill="#2C3C58"></path>
        </g>
    </g>
</svg>