<?xml version="1.0" encoding="UTF-8"?>
<svg width="51px" height="63px" viewBox="0 0 51 63" version="1.1" xmlns="http://www.w3.org/2000/svg" xmlns:xlink="http://www.w3.org/1999/xlink">
    <!-- Generator: Sketch 50.2 (55047) - http://www.bohemiancoding.com/sketch -->
    <title>Group</title>
    <desc>Created with Sketch.</desc>
    <defs></defs>
    <g id="Page-1" stroke="none" stroke-width="1" fill="none" fill-rule="evenodd">
        <g id="Group">
            <path d="M18.9401746,10.631 L15.9401746,10.631 C15.8001746,10.631 15.6901746,10.742 15.6901746,10.881 C15.6901746,11.019 15.8001746,11.131 15.9401746,11.131 L18.9401746,11.131 C19.0801746,11.131 19.1901746,11.019 19.1901746,10.881 C19.1901746,10.742 19.0801746,10.631 18.9401746,10.631" id="Fill-2268" fill="#8ACED3"></path>
            <path d="M25.9401746,10.631 L22.9401746,10.631 C22.8001746,10.631 22.6901746,10.742 22.6901746,10.881 C22.6901746,11.019 22.8001746,11.131 22.9401746,11.131 L25.9401746,11.131 C26.0801746,11.131 26.1901746,11.019 26.1901746,10.881 C26.1901746,10.742 26.0801746,10.631 25.9401746,10.631" id="Fill-2275" fill="#8ACED3"></path>
            <path d="M46.9401746,10.631 L43.9401746,10.631 C43.8001746,10.631 43.6901746,10.742 43.6901746,10.881 C43.6901746,11.019 43.8001746,11.131 43.9401746,11.131 L46.9401746,11.131 C47.0801746,11.131 47.1901746,11.019 47.1901746,10.881 C47.1901746,10.742 47.0801746,10.631 46.9401746,10.631" id="Fill-2303" fill="#8ACED3"></path>
            <path d="M39.9401746,10.631 L36.9401746,10.631 C36.8001746,10.631 36.6901746,10.742 36.6901746,10.881 C36.6901746,11.019 36.8001746,11.131 36.9401746,11.131 L39.9401746,11.131 C40.0801746,11.131 40.1901746,11.019 40.1901746,10.881 C40.1901746,10.742 40.0801746,10.631 39.9401746,10.631" id="Fill-2314" fill="#8ACED3"></path>
            <path d="M32.9401746,10.631 L29.9401746,10.631 C29.8001746,10.631 29.6901746,10.742 29.6901746,10.881 C29.6901746,11.019 29.8001746,11.131 29.9401746,11.131 L32.9401746,11.131 C33.0801746,11.131 33.1901746,11.019 33.1901746,10.881 C33.1901746,10.742 33.0801746,10.631 32.9401746,10.631" id="Fill-2324" fill="#8ACED3"></path>
            <path d="M15.6001746,21.27 L18.6001746,21.27 C18.7401746,21.27 18.8501746,21.158 18.8501746,21.02 C18.8501746,20.881 18.7401746,20.77 18.6001746,20.77 L15.6001746,20.77 C15.4601746,20.77 15.3501746,20.881 15.3501746,21.02 C15.3501746,21.158 15.4601746,21.27 15.6001746,21.27" id="Fill-2431" fill="#8ACED3"></path>
            <path d="M43.6001746,21.27 L46.6001746,21.27 C46.7401746,21.27 46.8501746,21.158 46.8501746,21.019 C46.8501746,20.881 46.7401746,20.77 46.6001746,20.77 L43.6001746,20.77 C43.4601746,20.77 43.3501746,20.881 43.3501746,21.019 C43.3501746,21.158 43.4601746,21.27 43.6001746,21.27" id="Fill-2522" fill="#8ACED3"></path>
            <path d="M29.6001746,21.27 L32.6001746,21.27 C32.7401746,21.27 32.8501746,21.158 32.8501746,21.019 C32.8501746,20.881 32.7401746,20.77 32.6001746,20.77 L29.6001746,20.77 C29.4601746,20.77 29.3501746,20.881 29.3501746,21.019 C29.3501746,21.158 29.4601746,21.27 29.6001746,21.27" id="Fill-2523" fill="#8ACED3"></path>
            <path d="M22.6001746,21.27 L25.6001746,21.27 C25.7401746,21.27 25.8501746,21.158 25.8501746,21.019 C25.8501746,20.881 25.7401746,20.77 25.6001746,20.77 L22.6001746,20.77 C22.4601746,20.77 22.3501746,20.881 22.3501746,21.019 C22.3501746,21.158 22.4601746,21.27 22.6001746,21.27" id="Fill-2538" fill="#8ACED3"></path>
            <path d="M36.6001746,21.27 L39.6001746,21.27 C39.7401746,21.27 39.8501746,21.158 39.8501746,21.019 C39.8501746,20.881 39.7401746,20.77 39.6001746,20.77 L36.6001746,20.77 C36.4601746,20.77 36.3501746,20.881 36.3501746,21.019 C36.3501746,21.158 36.4601746,21.27 36.6001746,21.27" id="Fill-2542" fill="#8ACED3"></path>
            <path d="M32.9401746,30.911 L29.9401746,30.911 C29.8001746,30.911 29.6901746,31.022 29.6901746,31.16 C29.6901746,31.298 29.8001746,31.41 29.9401746,31.41 L32.9401746,31.41 C33.0801746,31.41 33.1901746,31.298 33.1901746,31.16 C33.1901746,31.022 33.0801746,30.911 32.9401746,30.911" id="Fill-2595" fill="#8ACED3"></path>
            <path d="M46.9401746,30.911 L43.9401746,30.911 C43.8001746,30.911 43.6901746,31.022 43.6901746,31.16 C43.6901746,31.298 43.8001746,31.41 43.9401746,31.41 L46.9401746,31.41 C47.0801746,31.41 47.1901746,31.298 47.1901746,31.16 C47.1901746,31.022 47.0801746,30.911 46.9401746,30.911" id="Fill-2655" fill="#8ACED3"></path>
            <path d="M25.9401746,30.91 L22.9401746,30.91 C22.8001746,30.91 22.6901746,31.022 22.6901746,31.16 C22.6901746,31.298 22.8001746,31.41 22.9401746,31.41 L25.9401746,31.41 C26.0801746,31.41 26.1901746,31.298 26.1901746,31.16 C26.1901746,31.022 26.0801746,30.91 25.9401746,30.91" id="Fill-2684" fill="#8ACED3"></path>
            <path d="M18.9401746,30.91 L15.9401746,30.91 C15.8001746,30.91 15.6901746,31.022 15.6901746,31.16 C15.6901746,31.298 15.8001746,31.41 15.9401746,31.41 L18.9401746,31.41 C19.0801746,31.41 19.1901746,31.298 19.1901746,31.16 C19.1901746,31.022 19.0801746,30.91 18.9401746,30.91" id="Fill-2730" fill="#8ACED3"></path>
            <path d="M39.9401746,30.911 L36.9401746,30.911 C36.8001746,30.911 36.6901746,31.022 36.6901746,31.16 C36.6901746,31.298 36.8001746,31.41 36.9401746,31.41 L39.9401746,31.41 C40.0801746,31.41 40.1901746,31.298 40.1901746,31.16 C40.1901746,31.022 40.0801746,30.911 39.9401746,30.911" id="Fill-2749" fill="#8ACED3"></path>
            <path d="M22.6001746,41.555 L25.6001746,41.555 C25.7401746,41.555 25.8501746,41.443 25.8501746,41.305 C25.8501746,41.167 25.7401746,41.055 25.6001746,41.055 L22.6001746,41.055 C22.4601746,41.055 22.3501746,41.167 22.3501746,41.305 C22.3501746,41.443 22.4601746,41.555 22.6001746,41.555" id="Fill-2776" fill="#8ACED3"></path>
            <path d="M29.6001746,41.555 L32.6001746,41.555 C32.7401746,41.555 32.8501746,41.444 32.8501746,41.306 C32.8501746,41.167 32.7401746,41.055 32.6001746,41.055 L29.6001746,41.055 C29.4601746,41.055 29.3501746,41.167 29.3501746,41.306 C29.3501746,41.444 29.4601746,41.555 29.6001746,41.555" id="Fill-2778" fill="#8ACED3"></path>
            <path d="M15.6001746,41.555 L18.6001746,41.555 C18.7401746,41.555 18.8501746,41.443 18.8501746,41.305 C18.8501746,41.167 18.7401746,41.055 18.6001746,41.055 L15.6001746,41.055 C15.4601746,41.055 15.3501746,41.167 15.3501746,41.305 C15.3501746,41.443 15.4601746,41.555 15.6001746,41.555" id="Fill-2786" fill="#8ACED3"></path>
            <path d="M43.6001746,41.555 L46.6001746,41.555 C46.7401746,41.555 46.8501746,41.444 46.8501746,41.306 C46.8501746,41.167 46.7401746,41.055 46.6001746,41.055 L43.6001746,41.055 C43.4601746,41.055 43.3501746,41.167 43.3501746,41.306 C43.3501746,41.444 43.4601746,41.555 43.6001746,41.555" id="Fill-2791" fill="#8ACED3"></path>
            <path d="M36.6001746,41.555 L39.6001746,41.555 C39.7401746,41.555 39.8501746,41.444 39.8501746,41.306 C39.8501746,41.167 39.7401746,41.055 39.6001746,41.055 L36.6001746,41.055 C36.4601746,41.055 36.3501746,41.167 36.3501746,41.306 C36.3501746,41.444 36.4601746,41.555 36.6001746,41.555" id="Fill-2797" fill="#8ACED3"></path>
            <path d="M32.9401746,51.204 L29.9401746,51.204 C29.8001746,51.204 29.6901746,51.316 29.6901746,51.454 C29.6901746,51.592 29.8001746,51.704 29.9401746,51.704 L32.9401746,51.704 C33.0801746,51.704 33.1901746,51.592 33.1901746,51.454 C33.1901746,51.316 33.0801746,51.204 32.9401746,51.204" id="Fill-3074" fill="#8ACED3"></path>
            <path d="M25.9401746,51.204 L22.9401746,51.204 C22.8001746,51.204 22.6901746,51.316 22.6901746,51.454 C22.6901746,51.592 22.8001746,51.704 22.9401746,51.704 L25.9401746,51.704 C26.0801746,51.704 26.1901746,51.592 26.1901746,51.454 C26.1901746,51.316 26.0801746,51.204 25.9401746,51.204" id="Fill-3089" fill="#8ACED3"></path>
            <path d="M39.9401746,51.204 L36.9401746,51.204 C36.8001746,51.204 36.6901746,51.316 36.6901746,51.454 C36.6901746,51.592 36.8001746,51.704 36.9401746,51.704 L39.9401746,51.704 C40.0801746,51.704 40.1901746,51.592 40.1901746,51.454 C40.1901746,51.316 40.0801746,51.204 39.9401746,51.204" id="Fill-3117" fill="#8ACED3"></path>
            <path d="M18.9401746,51.204 L15.9401746,51.204 C15.8001746,51.204 15.6901746,51.316 15.6901746,51.454 C15.6901746,51.592 15.8001746,51.704 15.9401746,51.704 L18.9401746,51.704 C19.0801746,51.704 19.1901746,51.592 19.1901746,51.454 C19.1901746,51.316 19.0801746,51.204 18.9401746,51.204" id="Fill-3164" fill="#8ACED3"></path>
            <path d="M1.00017459,12.549 C1.00017459,12.549 1.00017459,43.792 1.00017459,47.42 C1.00017459,51.414 3.91017459,52.332 3.91017459,52.332 L25.0101746,61 L25.0101746,24.512 C25.0101746,24.512 6.52017459,16.938 4.29017459,15.942 C2.68017459,15.219 0.980174592,13.885 0.999999816,12.438 L1.00017459,12.549" id="Fill-17867" fill="#E47773"></path>
            <path d="M25.0101746,61 L25.0101746,24.512 C25.0101746,24.512 6.51017459,16.938 4.29017459,15.942 C2.06017459,14.947 -0.299825408,12.799 1.83017459,10.791 C4.07017459,8.675 8.20017459,9.853 10.4901746,10.965 L33.0001746,20.147 L33.0001746,56.999 C33.0001746,56.999 26.9701746,56.582 25.0101746,61" id="Fill-17868" fill="#FFFFFE"></path>
            <path d="M30.0301746,57.274 C31.1101746,57.03 32.0701746,56.989 32.5901746,56.989 C32.8501746,56.989 33.0001746,56.999 33.0001746,56.999 L33.0001746,51.695 L33.0001746,56.999 C33.0001746,56.999 31.4401746,57.021 30.0301746,57.274" id="Fill-17869" fill="#D5D6DF"></path>
            <path d="M30.0301746,57.274 L29.9901746,22.436 L7.99017459,13.465 C6.63017459,12.804 4.62017459,12.124 2.74017459,12.124 C2.14017459,12.124 1.55017459,12.193 1.00017459,12.356 C1.03017459,11.84 1.28017459,11.311 1.83017459,10.791 C1.85017459,10.767 1.88017459,10.744 1.90017459,10.721 C1.92017459,10.708 1.93017459,10.694 1.95017459,10.681 C1.97017459,10.664 1.99017459,10.648 2.01017459,10.631 C2.89017459,9.898 4.03017459,9.62 5.22017459,9.618 L5.23017459,9.618 C5.25017459,9.618 5.26017459,9.618 5.28017459,9.618 C7.03017459,9.628 8.89017459,10.225 10.2201746,10.84 C10.2301746,10.842 10.2301746,10.844 10.2401746,10.846 C10.2601746,10.856 10.2801746,10.866 10.3001746,10.876 C10.3501746,10.9 10.4001746,10.924 10.4501746,10.949 C10.4601746,10.954 10.4801746,10.96 10.4901746,10.965 L10.7801746,11.086 C11.2601746,11.422 11.7801746,11.713 12.2901746,11.942 C14.5001746,12.933 32.7901746,20.426 33.0001746,20.512 L33.0001746,56.999 C33.0001746,56.999 32.8501746,56.989 32.5901746,56.989 C32.0701746,56.989 31.1101746,57.03 30.0301746,57.274" id="Fill-17871" fill="#D5D6DF"></path>
            <path d="M25.0101746,61 C25.0101746,60.999 25.0101746,60.998 25.0101746,60.997 C25.0101746,60.998 25.0101746,60.999 25.0101746,61 M25.0101746,60.986 C25.0601746,60.871 25.1201746,60.759 25.1701746,60.65 L25.2001746,60.633 C25.1401746,60.751 25.0701746,60.86 25.0101746,60.986" id="Fill-17872" fill="#D5D6DF"></path>
            <path d="M25.0101746,60.997 C25.0101746,60.994 25.0101746,60.99 25.0101746,60.986 C25.0101746,60.99 25.0101746,60.994 25.0101746,60.997" id="Fill-17873" fill="#C0646E"></path>
            <path d="M25.0101746,61 L25.0101746,60.753 L25.1701746,60.65 C25.1201746,60.759 25.0601746,60.871 25.0101746,60.986 C25.0101746,60.99 25.0101746,60.994 25.0101746,60.997 C25.0101746,60.998 25.0101746,60.999 25.0101746,61" id="Fill-17874" fill="#D5D6DF"></path>
            <path d="M33.0101746,56.999 L33.0101746,20.513 C33.0101746,20.513 14.5101746,12.938 12.2901746,11.942 C10.0601746,10.947 7.70017459,8.799 9.83017459,6.79 C12.0701746,4.674 16.2001746,5.853 18.4901746,6.966 L41.0001746,16.147 L41.0001746,53 C41.0001746,53 34.9701746,52.582 33.0101746,56.999" id="Fill-17875" fill="#FFFFFE"></path>
            <path d="M38.0301746,53.274 C39.1101746,53.03 40.0701746,52.989 40.5901746,52.989 C40.8501746,52.989 41.0001746,53 41.0001746,53 L41.0001746,16.147 L41.0001746,53 C41.0001746,53 39.4301746,53.022 38.0301746,53.274 M9.83017459,6.79 C9.85017459,6.767 9.88017459,6.744 9.90017459,6.721 C9.88017459,6.744 9.85017459,6.767 9.83017459,6.79 M9.95017459,6.681 C10.8301746,5.913 11.9901746,5.622 13.2001746,5.618 C11.9901746,5.622 10.8301746,5.914 9.95017459,6.681 M13.2501746,5.618 C13.2501746,5.618 13.2401746,5.617 13.2301746,5.617 C13.2401746,5.617 13.2501746,5.618 13.2501746,5.618" id="Fill-17876" fill="#D5D6DF"></path>
            <path d="M38.0301746,53.274 L37.9901746,18.436 L15.9901746,9.466 C14.6301746,8.804 12.6201746,8.124 10.7401746,8.124 C10.1401746,8.124 9.55017459,8.194 9.00017459,8.356 C9.03017459,7.84 9.28017459,7.311 9.83017459,6.79 C9.85017459,6.767 9.88017459,6.744 9.90017459,6.721 C9.92017459,6.707 9.93017459,6.694 9.95017459,6.681 C10.8301746,5.914 11.9901746,5.622 13.2001746,5.618 C13.2101746,5.617 13.2201746,5.617 13.2301746,5.617 C13.2401746,5.617 13.2501746,5.618 13.2501746,5.618 C15.1301746,5.623 17.1301746,6.306 18.4901746,6.966 L41.0001746,16.147 L41.0001746,53 C41.0001746,53 40.8501746,52.989 40.5901746,52.989 C40.0701746,52.989 39.1101746,53.03 38.0301746,53.274" id="Fill-17877" fill="#D5D6DF"></path>
            <path d="M33.0101746,56.999 C33.0601746,56.879 33.1201746,56.763 33.1701746,56.65 L33.2001746,56.633 C33.1401746,56.755 33.0601746,56.869 33.0101746,56.999" id="Fill-17878" fill="#D5D6DF"></path>
            <path d="M33.0101746,56.999 L33.0101746,56.753 L33.1701746,56.65 C33.1201746,56.763 33.0601746,56.879 33.0101746,56.999" id="Fill-17879" fill="#D5D6DF"></path>
            <path d="M41.0101746,52.382 L41.0101746,15.895 C41.0101746,15.895 22.5101746,8.321 20.2901746,7.325 C18.0601746,6.33 15.7001746,4.182 17.8301746,2.173 C20.0701746,0.057 24.2001746,1.236 26.4901746,2.348 L49.0001746,11.53 L49.0001746,48.383 C49.0001746,48.383 42.9701746,47.965 41.0101746,52.382" id="Fill-17880" fill="#FFFFFE"></path>
            <path d="M46.0301746,48.657 C47.1101746,48.413 48.0701746,48.372 48.5901746,48.372 C48.8501746,48.372 49.0001746,48.383 49.0001746,48.383 L49.0001746,11.53 L49.0001746,48.383 C49.0001746,48.383 47.4401746,48.405 46.0301746,48.657 M26.4001746,2.308 C26.3901746,2.302 26.3801746,2.297 26.3701746,2.291 C26.3801746,2.297 26.3901746,2.302 26.4001746,2.308 M26.3501746,2.281 C26.3201746,2.27 26.3001746,2.259 26.2801746,2.248 C26.3001746,2.259 26.3201746,2.27 26.3501746,2.281 M26.2401746,2.23 C26.2301746,2.227 26.2201746,2.223 26.2201746,2.22 C26.2201746,2.223 26.2301746,2.227 26.2401746,2.23 M17.8301746,2.173 C17.8501746,2.15 17.8801746,2.126 17.9001746,2.104 C17.8801746,2.126 17.8501746,2.15 17.8301746,2.173 M17.9501746,2.064 C18.8401746,1.293 20.0001746,1.003 21.2201746,1 C20.0001746,1.003 18.8401746,1.293 17.9501746,2.064 M21.2701746,1 C21.2601746,1 21.2501746,1 21.2301746,1 C21.2501746,1 21.2601746,1 21.2701746,1" id="Fill-17881" fill="#D5D6DF"></path>
            <path d="M46.0301746,48.657 L45.9901746,13.819 L23.9901746,4.848 C22.6301746,4.187 20.6201746,3.506 18.7401746,3.506 C18.1401746,3.506 17.5501746,3.576 17.0001746,3.739 C17.0301746,3.223 17.2801746,2.694 17.8301746,2.173 C17.8501746,2.15 17.8801746,2.126 17.9001746,2.104 C17.9201746,2.09 17.9301746,2.077 17.9501746,2.064 C18.8401746,1.293 20.0001746,1.003 21.2201746,1 L21.2301746,1 C21.2501746,1 21.2601746,1 21.2701746,1 C23.0201746,1.01 24.8801746,1.606 26.2201746,2.22 C26.2201746,2.223 26.2301746,2.227 26.2401746,2.23 C26.2501746,2.236 26.2601746,2.242 26.2801746,2.248 C26.3001746,2.259 26.3201746,2.27 26.3501746,2.281 C26.3501746,2.284 26.3601746,2.287 26.3701746,2.291 C26.3801746,2.297 26.3901746,2.302 26.4001746,2.308 C26.4301746,2.322 26.4601746,2.335 26.4901746,2.348 L49.0001746,11.53 L49.0001746,48.383 C49.0001746,48.383 48.8501746,48.372 48.5901746,48.372 C48.0701746,48.372 47.1101746,48.413 46.0301746,48.657" id="Fill-17882" fill="#D5D6DF"></path>
            <path d="M41.0101746,52.382 C41.0601746,52.262 41.1201746,52.145 41.1801746,52.032 L41.2001746,52.016 C41.1401746,52.138 41.0601746,52.251 41.0101746,52.382" id="Fill-17883" fill="#D5D6DF"></path>
            <path d="M41.0101746,52.382 L41.0101746,52.136 L41.1801746,52.032 C41.1201746,52.145 41.0601746,52.262 41.0101746,52.382" id="Fill-17884" fill="#D5D6DF"></path>
            <path d="M12.5501746,10.725 C11.8501746,10.415 11.1501746,9.959 10.6701746,9.477 C10.4301746,9.237 10.2501746,8.993 10.1401746,8.773 C10.0201746,8.551 9.98017459,8.362 9.98017459,8.193 C9.99017459,7.929 10.0701746,7.633 10.5301746,7.184 C10.8601746,6.868 11.2501746,6.649 11.7101746,6.501 C12.1701746,6.353 12.6901746,6.283 13.2401746,6.283 C14.8901746,6.276 16.8101746,6.914 18.0601746,7.53 L18.0901746,7.545 L40.0201746,16.485 L40.0201746,53 C40.0201746,53.552 40.4601746,54 41.0201746,54 C41.5701746,54 42.0201746,53.552 42.0201746,53 L42.0201746,15.141 L18.8801746,5.705 L18.5001746,6.631 L18.9401746,5.732 C17.4701746,5.024 15.3701746,4.291 13.2401746,4.283 C12.5201746,4.284 11.8001746,4.372 11.1001746,4.597 C10.4001746,4.822 9.73017459,5.189 9.16017459,5.73 C8.40017459,6.431 7.97017459,7.314 7.98017459,8.193 C7.98017459,8.735 8.13017459,9.243 8.36017459,9.69 C8.71017459,10.362 9.23017459,10.917 9.82017459,11.391 C10.4101746,11.863 11.0701746,12.252 11.7301746,12.551 C12.2401746,12.777 12.8301746,12.551 13.0601746,12.047 C13.2801746,11.543 13.0601746,10.951 12.5501746,10.726" id="Fill-17888" fill="#2C3C58"></path>
            <path d="M20.5601746,6.442 C19.8701746,6.132 19.1601746,5.676 18.6901746,5.194 C18.4501746,4.954 18.2601746,4.71 18.1501746,4.489 C18.0401746,4.268 17.9901746,4.079 17.9901746,3.909 C18.0001746,3.645 18.0801746,3.349 18.5401746,2.901 C18.8801746,2.584 19.2701746,2.365 19.7201746,2.217 C20.1801746,2.07 20.7001746,2 21.2601746,2 C22.9001746,1.993 24.8201746,2.63 26.0801746,3.247 L26.1101746,3.262 L48.0301746,12.202 L48.0301746,49 C48.0301746,49.552 48.4801746,50 49.0301746,50 C49.5801746,50 50.0301746,49.552 50.0301746,49 L50.0301746,10.858 L26.8901746,1.422 L26.5101746,2.348 L26.9501746,1.449 C25.4901746,0.741 23.3801746,0.008 21.2601746,0 C20.5401746,0 19.8101746,0.089 19.1101746,0.314 C18.4101746,0.538 17.7401746,0.906 17.1701746,1.447 C16.4101746,2.148 15.9801746,3.03 15.9901746,3.909 C15.9901746,4.452 16.1401746,4.96 16.3701746,5.407 C16.7201746,6.079 17.2401746,6.634 17.8301746,7.107 C18.4201746,7.58 19.0801746,7.969 19.7501746,8.268 C20.2501746,8.493 20.8401746,8.268 21.0701746,7.764 C21.2901746,7.259 21.0701746,6.668 20.5601746,6.442" id="Fill-17889" fill="#2C3C58"></path>
            <path d="M0.000174591932,12.549 C0.000174591932,12.549 0.000174591932,43.792 0.000174591932,47.421 C-0.00982540807,49.662 0.850174592,51.196 1.75017459,52.079 C2.64017459,52.97 3.51017459,53.253 3.61017459,53.285 L3.91017459,52.332 L3.53017459,53.257 L26.0101746,62.492 L26.0101746,23.841 L25.3901746,23.587 C25.3901746,23.586 24.2301746,23.114 22.4701746,22.388 C19.8101746,21.3 15.7801746,19.644 12.2101746,18.167 C8.64017459,16.693 5.50017459,15.387 4.70017459,15.029 C3.99017459,14.711 3.25017459,14.245 2.74017459,13.751 C2.48017459,13.506 2.29017459,13.256 2.17017459,13.033 C2.05017459,12.809 2.00017459,12.622 2.00017459,12.46 C2.01017459,12.22 2.08017459,11.948 2.52017459,11.518 C2.86017459,11.202 3.25017459,10.983 3.70017459,10.835 C4.16017459,10.687 4.68017459,10.617 5.24017459,10.617 C6.88017459,10.61 8.80017459,11.248 10.0601746,11.864 L10.0901746,11.88 L32.0101746,20.819 L32.0101746,57 C32.0101746,57.552 32.4601746,58 33.0101746,58 C33.5601746,58 34.0101746,57.552 34.0101746,57 L34.0101746,19.475 L10.8701746,10.039 L10.4901746,10.965 L10.9301746,10.066 C9.47017459,9.358 7.36017459,8.625 5.24017459,8.617 C4.51017459,8.618 3.79017459,8.706 3.09017459,8.931 C2.39017459,9.156 1.72017459,9.523 1.15017459,10.064 C0.410174592,10.743 -0.00982540807,11.602 0.000174591932,12.46 C0.000174591932,13.017 0.170174592,13.535 0.410174592,13.986 C0.780174592,14.664 1.32017459,15.217 1.93017459,15.692 C2.54017459,16.164 3.21017459,16.554 3.89017459,16.855 C4.47017459,17.116 6.03017459,17.772 8.09017459,18.625 C14.2301746,21.177 24.6301746,25.437 24.6301746,25.438 L25.0101746,24.512 L24.0101746,24.512 L24.0101746,59.508 L4.25017459,51.391 L4.21017459,51.378 L4.04017459,51.916 L4.22017459,51.382 L4.21017459,51.378 L4.04017459,51.916 L4.22017459,51.382 L4.13017459,51.345 C3.91017459,51.25 3.37017459,50.966 2.91017459,50.38 C2.44017459,49.79 2.01017459,48.907 2.00017459,47.421 C2.00017459,45.606 2.00017459,36.888 2.00017459,28.624 C2.00017459,24.492 2.00017459,20.473 2.00017459,17.488 C2.00017459,14.502 2.00017459,12.554 2.00017459,12.549 C2.00017459,11.997 1.55017459,11.55 1.00017459,11.55 C0.450174592,11.55 0.000174591932,11.997 0.000174591932,12.549" id="Fill-17890" fill="#2C3C58"></path>
        </g>
    </g>
</svg>