<?xml version="1.0" encoding="UTF-8"?>
<svg width="38px" height="62px" viewBox="0 0 38 62" version="1.1" xmlns="http://www.w3.org/2000/svg" xmlns:xlink="http://www.w3.org/1999/xlink">
    <!-- Generator: Sketch 50.2 (55047) - http://www.bohemiancoding.com/sketch -->
    <title>Group 6</title>
    <desc>Created with Sketch.</desc>
    <defs></defs>
    <g id="Page-1" stroke="none" stroke-width="1" fill="none" fill-rule="evenodd">
        <g id="Group-6">
            <path d="M1.00000166,58.04 C1.00000166,59.7 2.33800166,61 3.99400166,61 L33.9940017,61 C35.6500017,61 37.0010017,59.7 37.0010017,58.04 L37.0010017,49 L1.00000166,49 L1.00000166,58.04" id="Fill-17392" fill="#506087"></path>
            <path d="M37.0010017,4.04 C37.0010017,2.39 35.6500017,1 33.9940017,1 L3.99400166,1 C2.33800166,1 1.00000166,2.39 1.00000166,4.04 L1.00000166,9 L37.0010017,9 L37.0010017,4.04" id="Fill-17393" fill="#506087"></path>
            <polygon id="Fill-17394" fill="#A0D1E3" points="1.00000166 49 37.0010017 49 37.0010017 9 1.00000166 9"></polygon>
            <path d="M20.9940017,55.04 C20.9940017,56.15 20.0980017,57.04 18.9940017,57.04 C17.8890017,57.04 16.9940017,56.15 16.9940017,55.04 C16.9940017,53.94 17.8890017,53.04 18.9940017,53.04 C20.0980017,53.04 20.9940017,53.94 20.9940017,55.04" id="Fill-17395" fill="#75829E"></path>
            <path d="M5.00100166,9 L1.00000166,9 L1.00000166,4.04 C1.00000166,2.39 2.33800166,1 3.99400166,1 L7.99400166,1 C6.33700166,1 5.00100166,2.39 5.00100166,4.04 L5.00100166,9" id="Fill-17396" fill="#43527F"></path>
            <path d="M7.99400166,61 L3.99400166,61 C2.33800166,61 1.00000166,59.7 1.00000166,58.04 L1.00000166,49 L5.00100166,49 L5.00100166,58.04 C5.00100166,59.7 6.33700166,61 7.99400166,61" id="Fill-17397" fill="#43527F"></path>
            <polyline id="Fill-17398" fill="#B8DDE8" points="1.00000166 46.04 1.00000166 37.54 29.4940017 9 37.0010017 9 37.0010017 10.04 1.00000166 46.04"></polyline>
            <polyline id="Fill-17399" fill="#B8DDE8" points="34.9940017 49 8.99300166 49 37.0010017 21.04 37.0010017 47.04 34.9940017 49"></polyline>
            <path d="M1.00000166,58.04 L1.6595344e-06,58.04 C-0.000998340466,59.14 0.45000166,60.15 1.17400166,60.86 C1.89700166,61.57 2.90100166,62 3.99400166,62 L33.9940017,62 C35.0860017,62 36.0910017,61.57 36.8170017,60.86 C37.5450017,60.15 38.0020017,59.15 38.0000017,58.04 L38.0000017,49 C38.0000017,48.74 37.8940017,48.48 37.7070017,48.3 C37.5210017,48.11 37.2640017,48 37.0000017,48 L1.00000166,48 C0.73700166,48 0.47900166,48.11 0.29300166,48.3 C0.10700166,48.48 1.6595344e-06,48.74 1.6595344e-06,49 L1.6595344e-06,58.04 L2.00000166,58.04 L2.00000166,50 L36.0000017,50 L36.0000017,58.04 C36.0000017,59.14 35.1180017,60 33.9940017,60 L3.99400166,60 C2.87100166,60 2.00400166,59.14 2.00000166,58.04 L1.00000166,58.04" id="Fill-17400" fill="#2C3C58"></path>
            <path d="M37.0000017,4.04 L38.0000017,4.04 C37.9950017,1.84 36.2220017,0.01 33.9940017,0 L3.99400166,0 C2.88300166,0 1.87600166,0.47 1.16100166,1.2 C0.44400166,1.93 0.00100165953,2.94 1.65953441e-06,4.04 L1.65953441e-06,9 C1.65953441e-06,9.27 0.10700166,9.52 0.29300166,9.71 C0.48000166,9.9 0.73700166,10 1.00000166,10 L37.0000017,10 C37.2640017,10 37.5210017,9.9 37.7070017,9.71 C37.8940017,9.52 38.0000017,9.27 38.0000017,9 L38.0000017,4.04 L36.0000017,4.04 L36.0000017,8 L2.00000166,8 L2.00000166,4.04 C2.00000166,3.49 2.22500166,2.98 2.59000166,2.6 C2.95800166,2.23 3.44800166,2 3.99400166,2 L33.9940017,2 C34.5400017,2 35.0350017,2.23 35.4060017,2.6 C35.7750017,2.98 36.0010017,3.49 36.0000017,4.04 L37.0000017,4.04" id="Fill-17401" fill="#2C3C58"></path>
            <path d="M38.0000017,49 L38.0000017,9 C38.0000017,8.45 37.5530017,8 37.0000017,8 C36.4480017,8 36.0000017,8.45 36.0000017,9 L36.0000017,49 C36.0000017,49.56 36.4480017,50 37.0000017,50 C37.5530017,50 38.0000017,49.56 38.0000017,49" id="Fill-17402" fill="#2C3C58"></path>
            <path d="M1.65953441e-06,9 L1.65953441e-06,49 C1.65953441e-06,49.56 0.44800166,50 1.00000166,50 C1.55300166,50 2.00000166,49.56 2.00000166,49 L2.00000166,9 C2.00000166,8.45 1.55300166,8 1.00000166,8 C0.44800166,8 1.65953441e-06,8.45 1.65953441e-06,9" id="Fill-17403" fill="#2C3C58"></path>
            <path d="M20.9940017,55.04 L19.9940017,55.04 C19.9930017,55.6 19.5450017,56.04 18.9940017,56.04 C18.4420017,56.04 17.9950017,55.6 17.9940017,55.04 C17.9950017,54.49 18.4420017,54.04 18.9940017,54.04 C19.5450017,54.04 19.9930017,54.49 19.9940017,55.04 L21.9940017,55.04 C21.9930017,53.39 20.6510017,52.04 18.9940017,52.04 C17.3360017,52.04 15.9940017,53.39 15.9940017,55.04 C15.9940017,56.7 17.3360017,58.04 18.9940017,58.04 C20.6510017,58.04 21.9930017,56.7 21.9940017,55.04 L20.9940017,55.04" id="Fill-17404" fill="#2C3C58"></path>
        </g>
    </g>
</svg>