<?xml version="1.0" encoding="UTF-8"?>
<svg width="54px" height="62px" viewBox="0 0 54 62" version="1.1" xmlns="http://www.w3.org/2000/svg" xmlns:xlink="http://www.w3.org/1999/xlink">
    <!-- Generator: Sketch 50.2 (55047) - http://www.bohemiancoding.com/sketch -->
    <title>Group 8</title>
    <desc>Created with Sketch.</desc>
    <defs></defs>
    <g id="Page-1" stroke="none" stroke-width="1" fill="none" fill-rule="evenodd">
        <g id="Group-8">
            <path d="M1,1 L53,1 C53,1 53,12.78 53,23.07 C53,35.12 45.99,53.18 26.99,61 C7.91,53.04 1,35.11 1,23.07 C1,15.6 1,1 1,1" id="Fill-26592" fill="#6BBC8B"></path>
            <path d="M26.99,61 C7.92,53.04 1,35.11 1,23.07 C1,15.83 1,1.84 1,1 L27,1 L27,61 C27,61 27,61 26.99,61" id="Fill-26594" fill="#49B37E"></path>
            <path d="M1,0.999919361 L1,1.99983872 L53,1.99983872 L53,0.999919361 L52,0.999919361 C52,0.999919361 52,12.7789694 52,23.0681397 C52,28.8976695 50.29,36.2770744 46.26,43.1065237 C42.22,49.9459721 35.9,56.2454641 26.61,60.0751552 L26.99,60.995081 L27.38,60.0751552 C18.05,56.1854689 11.72,49.8759777 7.7,43.0565277 C3.68,36.2370777 1.99,28.8976695 2,23.0681397 C2,19.3384404 2,13.8188856 2,9.2392549 C2,6.94943956 2,4.88960568 2,3.39972583 C2,1.91984517 2,1.00991855 2,0.999919361 L1,0.999919361 L1,1.99983872 L1,0.999919361 L0,0.999919361 C0,1.00991855 0,1.91984517 0,3.39972583 C0,7.85936618 0,17.4685912 0,23.0681397 C0,29.2776389 1.77,36.9170228 5.98,44.0664463 C10.18,51.2158697 16.86,57.8553342 26.61,61.925006 C26.85,62.024998 27.12,62.024998 27.37,61.925006 C37.09,57.9253286 43.76,51.285864 47.98,44.1264414 C52.2,36.9570196 53.99,29.2776389 54,23.0681397 C54,17.9285541 54,12.4089993 54,8.17934038 C54,6.05951133 54,4.26965567 54,3.00975728 C54,1.73985969 54,1.00991855 54,0.999919361 C54,0.739940327 53.89,0.479961293 53.7,0.299975808 C53.52,0.10999113 53.26,0 53,0 L1,0 C0.73,0 0.48,0.10999113 0.29,0.299975808 C0.1,0.479961293 0,0.739940327 0,0.999919361 L1,0.999919361" id="Fill-26595" fill="#2C3C58"></path>
            <path d="M16.2925355,26.7067774 L25.2936272,35.7092909 C25.4836503,35.899344 25.7436818,36.0093747 26.0137146,35.9993719 C26.2837473,35.9993719 26.5437788,35.8893412 26.7338019,35.6892853 L41.7356215,19.6848169 C42.1056663,19.2747024 42.0856639,18.6445264 41.6856154,18.2644203 C41.2855669,17.894317 40.6454892,17.9143226 40.2754444,18.3144343 L25.9737097,33.5686933 L17.7027065,25.2963836 C17.3126592,24.9062747 16.6825828,24.9062747 16.2925355,25.2963836 C15.9024882,25.6864925 15.9024882,26.3166685 16.2925355,26.7067774" id="Fill-26596" fill="#2C3C58"></path>
        </g>
    </g>
</svg>