<?xml version="1.0" encoding="UTF-8"?>
<svg width="54px" height="62px" viewBox="0 0 54 62" version="1.1" xmlns="http://www.w3.org/2000/svg" xmlns:xlink="http://www.w3.org/1999/xlink">
    <!-- Generator: Sketch 50.2 (55047) - http://www.bohemiancoding.com/sketch -->
    <title>Group 9</title>
    <desc>Created with Sketch.</desc>
    <defs></defs>
    <g id="Page-1" stroke="none" stroke-width="1" fill="none" fill-rule="evenodd">
        <g id="Group-9">
            <path d="M1,1 L53,1 C53,1 53,12.78 53,23.07 C53,35.12 45.99,53.18 26.99,61 C7.91,53.04 1,35.11 1,23.07 C1,15.6 1,1 1,1" id="Fill-26601" fill="#E16060"></path>
            <path d="M26.99,61 C7.92,53.04 1,35.11 1,23.07 C1,15.83 1,1.84 1,1 L27,1 L27,61 C27,61 27,61 26.99,61" id="Fill-26603" fill="#C95251"></path>
            <path d="M1,1 L1,2 L53,2 L53,1 L52,1 C52,1 52,12.78 52,23.07 C52,28.9 50.29,36.28 46.26,43.11 C42.22,49.95 35.9,56.25 26.61,60.08 L26.99,61 L27.38,60.08 C18.05,56.19 11.72,49.88 7.7,43.06 C3.68,36.24 1.99,28.9 2,23.07 C2,19.34 2,13.82 2,9.24 C2,6.95 2,4.89 2,3.4 C2,1.92 2,1.01 2,1 L1,1 L1,2 L1,1 L0,1 C0,1.01 0,1.92 0,3.4 C0,7.86 0,17.47 0,23.07 C0,29.28 1.77,36.92 5.98,44.07 C10.18,51.22 16.86,57.86 26.61,61.93 C26.85,62.03 27.12,62.03 27.37,61.93 C37.09,57.93 43.76,51.29 47.98,44.13 C52.2,36.96 53.99,29.28 54,23.07 C54,17.93 54,12.41 54,8.18 C54,6.06 54,4.27 54,3.01 C54,1.74 54,1.01 54,1 C54,0.74 53.89,0.48 53.7,0.3 C53.52,0.11 53.26,0 53,0 L1,0 C0.73,0 0.48,0.11 0.29,0.3 C0.1,0.48 0,0.74 0,1 L1,1" id="Fill-26604" fill="#2C3C58"></path>
            <path d="M36.29,15.3 L16.29,35.3 C15.9,35.69 15.9,36.32 16.29,36.71 C16.68,37.1 17.31,37.1 17.7,36.71 L37.7,16.71 C38.09,16.32 38.09,15.69 37.7,15.3 C37.31,14.91 36.68,14.91 36.29,15.3" id="Fill-26605" fill="#2C3C58"></path>
            <path d="M37.7,35.3 L17.7,15.3 C17.31,14.91 16.68,14.91 16.29,15.3 C15.9,15.69 15.9,16.32 16.29,16.71 L36.29,36.71 C36.68,37.1 37.31,37.1 37.7,36.71 C38.09,36.32 38.09,35.69 37.7,35.3" id="Fill-26606" fill="#2C3C58"></path>
        </g>
    </g>
</svg>