<?xml version="1.0" encoding="UTF-8"?>
<svg width="62px" height="57px" viewBox="0 0 62 57" version="1.1" xmlns="http://www.w3.org/2000/svg" xmlns:xlink="http://www.w3.org/1999/xlink">
    <!-- Generator: Sketch 50.2 (55047) - http://www.bohemiancoding.com/sketch -->
    <title>Group 4</title>
    <desc>Created with Sketch.</desc>
    <defs></defs>
    <g id="Page-1" stroke="none" stroke-width="1" fill="none" fill-rule="evenodd">
        <g id="Group-4">
            <polyline id="Fill-17661" fill="#FFFFFE" points="35 6 35 12 27 12 27 6 1 6 1 56 61 56 61 6 35 6"></polyline>
            <path d="M29,42.86 C25,42 25,40.53 25,39.59 L25,38.11 C26.722,36.59 27.937,34.07 27.937,31.2 L27.937,26.72 C27.937,22.31 24.132,20 21,20 C17.863,20 14.031,22.3 14.031,26.72 L14.031,31.2 C14.031,34.06 15.285,36.58 17,38.1 L17,39.59 C17,40.53 16.968,42 12.847,42.86 C9.076,43.65 9,48 9,48 L33,48 C33,48 33.167,43.76 29,42.86" id="Fill-17662" fill="#A3CADF"></path>
            <polygon id="Fill-17663" fill="#E47773" points="27 12 34.999 12 34.999 0 27 0"></polygon>
            <polyline id="Fill-17666" fill="#D5D6DF" points="61 56 1 56 1 6 7.001 6 7.001 53 61 53 61 56"></polyline>
            <path d="M29.0001723,42.86 L29.2111723,41.88 C28.2681723,41.68 27.5911723,41.45 27.1251723,41.22 C26.4201723,40.87 26.2141723,40.58 26.1121723,40.38 C26.0121723,40.17 25.9981723,39.95 25.9991723,39.59 L25.9991723,38.11 L25.0001723,38.11 L25.6611723,38.86 C27.6151723,37.13 28.9321723,34.35 28.9371723,31.2 L28.9371723,26.72 C28.9451723,24.22 27.8281723,22.22 26.2871723,20.94 C24.7431723,19.65 22.8081723,19 21.0001723,19 C19.1901723,19 17.2491723,19.64 15.6981723,20.93 C14.1481723,22.22 13.0231723,24.21 13.0311723,26.72 L13.0311723,31.2 C13.0361723,34.36 14.3991723,37.12 16.3361723,38.85 L17.0001723,38.1 L16.0001723,38.1 L16.0001723,39.59 C16.0001723,39.82 15.9931723,40 15.9571723,40.14 C15.8951723,40.36 15.8301723,40.55 15.3921723,40.88 C14.9521723,41.2 14.1061723,41.58 12.6421723,41.88 C11.5181723,42.12 10.6191723,42.64 9.96017233,43.28 C8.96817233,44.24 8.49817233,45.41 8.25617233,46.33 C8.01517233,47.25 8.00117233,47.93 8.00017233,47.98 C7.99517233,48.25 8.09917233,48.51 8.28617233,48.7 C8.47417233,48.89 8.73217233,49 9.00017233,49 L33.0001723,49 C33.5371723,49 33.9801723,48.57 33.9991723,48.03 L34.0001723,47.93 C33.9971723,47.57 33.9631723,46.38 33.3501723,45.08 C33.0421723,44.43 32.5801723,43.74 31.8991723,43.17 C31.2191723,42.59 30.3231723,42.12 29.2111723,41.88 L29.0001723,42.86 L28.7881723,43.84 C29.6051723,44.02 30.1731723,44.33 30.6051723,44.69 C31.2481723,45.24 31.6011723,45.94 31.7931723,46.59 C31.9841723,47.23 32.0011723,47.79 32.0001723,47.93 L32.0001723,47.96 L33.0001723,48 L33.0001723,47 L9.00017233,47 L9.00017233,48 L9.99917233,48.02 L9.89517233,48.01 L9.99917233,48.02 L9.89517233,48.01 L9.99917233,48.02 C9.99817233,47.96 10.0471723,46.98 10.4731723,46.02 C10.6831723,45.53 10.9811723,45.06 11.3891723,44.68 C11.7991723,44.3 12.3141723,44 13.0531723,43.84 C15.2141723,43.38 16.4601723,42.76 17.2181723,41.92 C17.5911723,41.5 17.8061723,41.02 17.9031723,40.61 C18.0021723,40.19 17.9991723,39.83 17.9991723,39.59 L17.9991723,38.1 C17.9991723,37.81 17.8771723,37.54 17.6631723,37.35 C16.1701723,36.03 15.0261723,33.76 15.0311723,31.2 L15.0311723,26.72 C15.0391723,24.81 15.8291723,23.44 16.9801723,22.47 C18.1291723,21.5 19.6721723,20.99 21.0001723,21 C22.3241723,20.99 23.8571723,21.5 25.0001723,22.47 C26.1431723,23.44 26.9291723,24.81 26.9371723,26.72 L26.9371723,31.2 C26.9421723,33.78 25.8291723,36.05 24.3381723,37.36 C24.1241723,37.55 24.0001723,37.82 24.0001723,38.11 L24.0001723,39.59 C24.0011723,39.83 23.9951723,40.18 24.0861723,40.59 C24.2121723,41.22 24.6211723,41.95 25.3811723,42.5 C26.1391723,43.05 27.2041723,43.49 28.7881723,43.84 L29.0001723,42.86" id="Fill-17667" fill="#2C3C58"></path>
            <path d="M35,7 L59.999,7 L59.999,55 L1.999,55 L1.999,7 L27,7 C27.552,7 27.999,6.55 27.999,6 C27.999,5.45 27.552,5 27,5 L1,5 C0.736,5 0.479,5.11 0.292,5.29 C0.106,5.48 0,5.74 0,6 L0,56 C0,56.27 0.106,56.52 0.292,56.71 C0.479,56.9 0.736,57 1,57 L61,57 C61.263,57 61.52,56.9 61.707,56.71 C61.893,56.52 61.999,56.27 61.999,56 L61.999,6 C61.999,5.74 61.893,5.48 61.707,5.29 C61.52,5.11 61.263,5 61,5 L35,5 C34.447,5 34,5.45 34,6 C34,6.55 34.447,7 35,7" id="Fill-17668" fill="#2C3C58"></path>
            <path d="M37,21 L53,21 C53.552,21 54,20.55 54,20 C54,19.44 53.552,19 53,19 L37,19 C36.447,19 36,19.44 36,20 C36,20.55 36.447,21 37,21" id="Fill-17670" fill="#2C3C58"></path>
            <path d="M37,29 L46.998,29 C47.55,29 47.998,28.55 47.998,28 C47.998,27.44 47.55,27 46.998,27 L37,27 C36.447,27 36,27.44 36,28 C36,28.55 36.447,29 37,29" id="Fill-17671" fill="#2C3C58"></path>
            <path d="M37,37 L51,37 C51.552,37 52,36.55 52,36 C52,35.44 51.552,35 51,35 L37,35 C36.447,35 36,35.44 36,36 C36,36.55 36.447,37 37,37" id="Fill-17672" fill="#2C3C58"></path>
        </g>
    </g>
</svg>