<?xml version="1.0" encoding="UTF-8"?>
<svg width="65px" height="55px" viewBox="0 0 65 55" version="1.1" xmlns="http://www.w3.org/2000/svg" xmlns:xlink="http://www.w3.org/1999/xlink">
    <!-- Generator: Sketch 50.2 (55047) - http://www.bohemiancoding.com/sketch -->
    <title>Group 2</title>
    <desc>Created with Sketch.</desc>
    <defs></defs>
    <g id="Page-1" stroke="none" stroke-width="1" fill="none" fill-rule="evenodd">
        <g id="Group-2">
            <path d="M33.302,7.382 L30.302,7.382 C30.164,7.382 30.052,7.494 30.052,7.632 C30.052,7.77 30.164,7.882 30.302,7.882 L33.302,7.882 C33.44,7.882 33.552,7.77 33.552,7.632 C33.552,7.494 33.44,7.382 33.302,7.382" id="Fill-3266" fill="#8ACED3"></path>
            <path d="M40.302,7.382 L37.302,7.382 C37.164,7.382 37.052,7.494 37.052,7.632 C37.052,7.77 37.164,7.882 37.302,7.882 L40.302,7.882 C40.439,7.882 40.552,7.77 40.552,7.632 C40.552,7.494 40.439,7.382 40.302,7.382" id="Fill-3274" fill="#8ACED3"></path>
            <path d="M19.302,7.382 L16.302,7.382 C16.164,7.382 16.052,7.494 16.052,7.632 C16.052,7.77 16.164,7.882 16.302,7.882 L19.302,7.882 C19.439,7.882 19.552,7.77 19.552,7.632 C19.552,7.494 19.439,7.382 19.302,7.382" id="Fill-3285" fill="#8ACED3"></path>
            <path d="M26.302,7.382 L23.302,7.382 C23.164,7.382 23.052,7.494 23.052,7.632 C23.052,7.77 23.164,7.882 23.302,7.882 L26.302,7.882 C26.44,7.882 26.552,7.77 26.552,7.632 C26.552,7.494 26.44,7.382 26.302,7.382" id="Fill-3293" fill="#8ACED3"></path>
            <path d="M47.302,7.382 L44.302,7.382 C44.165,7.382 44.052,7.494 44.052,7.632 C44.052,7.77 44.165,7.882 44.302,7.882 L47.302,7.882 C47.44,7.882 47.552,7.77 47.552,7.632 C47.552,7.494 47.44,7.382 47.302,7.382" id="Fill-3307" fill="#8ACED3"></path>
            <path d="M43.963,18.021 L46.963,18.021 C47.101,18.021 47.213,17.909 47.213,17.771 C47.213,17.632 47.101,17.52 46.963,17.52 L43.963,17.52 C43.826,17.52 43.713,17.632 43.713,17.771 C43.713,17.909 43.826,18.021 43.963,18.021" id="Fill-3441" fill="#8ACED3"></path>
            <path d="M50.963,18.021 L53.963,18.021 C54.101,18.021 54.213,17.909 54.213,17.771 C54.213,17.632 54.101,17.52 53.963,17.52 L50.963,17.52 C50.825,17.52 50.713,17.632 50.713,17.771 C50.713,17.909 50.825,18.021 50.963,18.021" id="Fill-3443" fill="#8ACED3"></path>
            <path d="M36.963,18.021 L39.963,18.021 C40.1,18.021 40.213,17.909 40.213,17.771 C40.213,17.632 40.1,17.52 39.963,17.52 L36.963,17.52 C36.825,17.52 36.713,17.632 36.713,17.771 C36.713,17.909 36.825,18.021 36.963,18.021" id="Fill-3446" fill="#8ACED3"></path>
            <path d="M29.963,18.021 L32.963,18.021 C33.101,18.021 33.213,17.909 33.213,17.771 C33.213,17.632 33.101,17.52 32.963,17.52 L29.963,17.52 C29.825,17.52 29.713,17.632 29.713,17.771 C29.713,17.909 29.825,18.021 29.963,18.021" id="Fill-3447" fill="#8ACED3"></path>
            <path d="M57.963,18.021 L60.963,18.021 C61.1,18.021 61.213,17.909 61.213,17.771 C61.213,17.632 61.1,17.52 60.963,17.52 L57.963,17.52 C57.825,17.52 57.713,17.632 57.713,17.771 C57.713,17.909 57.825,18.021 57.963,18.021" id="Fill-3449" fill="#8ACED3"></path>
            <path d="M8.963,18.021 L11.963,18.021 C12.101,18.021 12.213,17.909 12.213,17.771 C12.213,17.632 12.101,17.52 11.963,17.52 L8.963,17.52 C8.825,17.52 8.713,17.632 8.713,17.771 C8.713,17.909 8.825,18.021 8.963,18.021" id="Fill-3461" fill="#8ACED3"></path>
            <path d="M15.963,18.021 L18.963,18.021 C19.101,18.021 19.213,17.909 19.213,17.771 C19.213,17.632 19.101,17.52 18.963,17.52 L15.963,17.52 C15.825,17.52 15.713,17.632 15.713,17.771 C15.713,17.909 15.825,18.021 15.963,18.021" id="Fill-3462" fill="#8ACED3"></path>
            <path d="M22.963,18.021 L25.963,18.021 C26.101,18.021 26.213,17.909 26.213,17.771 C26.213,17.632 26.101,17.52 25.963,17.52 L22.963,17.52 C22.826,17.52 22.713,17.632 22.713,17.771 C22.713,17.909 22.826,18.021 22.963,18.021" id="Fill-3467" fill="#8ACED3"></path>
            <path d="M40.302,27.661 L37.302,27.661 C37.164,27.661 37.052,27.773 37.052,27.911 C37.052,28.049 37.164,28.161 37.302,28.161 L40.302,28.161 C40.439,28.161 40.552,28.049 40.552,27.911 C40.552,27.773 40.439,27.661 40.302,27.661" id="Fill-3603" fill="#8ACED3"></path>
            <path d="M19.302,27.661 L16.302,27.661 C16.164,27.661 16.052,27.773 16.052,27.911 C16.052,28.049 16.164,28.161 16.302,28.161 L19.302,28.161 C19.439,28.161 19.552,28.049 19.552,27.911 C19.552,27.773 19.439,27.661 19.302,27.661" id="Fill-3608" fill="#8ACED3"></path>
            <path d="M33.302,27.661 L30.302,27.661 C30.164,27.661 30.052,27.773 30.052,27.911 C30.052,28.049 30.164,28.161 30.302,28.161 L33.302,28.161 C33.44,28.161 33.552,28.049 33.552,27.911 C33.552,27.773 33.44,27.661 33.302,27.661" id="Fill-3614" fill="#8ACED3"></path>
            <path d="M12.302,27.661 L9.302,27.661 C9.164,27.661 9.052,27.773 9.052,27.911 C9.052,28.049 9.164,28.161 9.302,28.161 L12.302,28.161 C12.44,28.161 12.552,28.049 12.552,27.911 C12.552,27.773 12.44,27.661 12.302,27.661" id="Fill-3615" fill="#8ACED3"></path>
            <path d="M26.302,27.661 L23.302,27.661 C23.164,27.661 23.052,27.773 23.052,27.911 C23.052,28.049 23.164,28.161 23.302,28.161 L26.302,28.161 C26.44,28.161 26.552,28.049 26.552,27.911 C26.552,27.773 26.44,27.661 26.302,27.661" id="Fill-3616" fill="#8ACED3"></path>
            <path d="M61.302,27.661 L58.302,27.661 C58.164,27.661 58.052,27.773 58.052,27.911 C58.052,28.05 58.164,28.161 58.302,28.161 L61.302,28.161 C61.44,28.161 61.552,28.05 61.552,27.911 C61.552,27.773 61.44,27.661 61.302,27.661" id="Fill-3704" fill="#8ACED3"></path>
            <path d="M54.302,27.661 L51.302,27.661 C51.164,27.661 51.052,27.773 51.052,27.911 C51.052,28.05 51.164,28.161 51.302,28.161 L54.302,28.161 C54.44,28.161 54.552,28.05 54.552,27.911 C54.552,27.773 54.44,27.661 54.302,27.661" id="Fill-3705" fill="#8ACED3"></path>
            <path d="M47.302,27.661 L44.302,27.661 C44.164,27.661 44.052,27.773 44.052,27.911 C44.052,28.05 44.164,28.161 44.302,28.161 L47.302,28.161 C47.44,28.161 47.552,28.05 47.552,27.911 C47.552,27.773 47.44,27.661 47.302,27.661" id="Fill-3719" fill="#8ACED3"></path>
            <path d="M50.963,38.306 L53.963,38.306 C54.101,38.306 54.213,38.195 54.213,38.056 C54.213,37.918 54.101,37.806 53.963,37.806 L50.963,37.806 C50.825,37.806 50.713,37.918 50.713,38.056 C50.713,38.195 50.825,38.306 50.963,38.306" id="Fill-3814" fill="#8ACED3"></path>
            <path d="M57.963,38.306 L60.963,38.306 C61.101,38.306 61.213,38.195 61.213,38.056 C61.213,37.918 61.101,37.806 60.963,37.806 L57.963,37.806 C57.825,37.806 57.713,37.918 57.713,38.056 C57.713,38.195 57.825,38.306 57.963,38.306" id="Fill-3816" fill="#8ACED3"></path>
            <path d="M29.963,38.306 L32.963,38.306 C33.101,38.306 33.213,38.194 33.213,38.056 C33.213,37.918 33.101,37.807 32.963,37.807 L29.963,37.807 C29.825,37.807 29.713,37.918 29.713,38.056 C29.713,38.194 29.825,38.306 29.963,38.306" id="Fill-3825" fill="#8ACED3"></path>
            <path d="M43.963,38.306 L46.963,38.306 C47.101,38.306 47.213,38.195 47.213,38.056 C47.213,37.918 47.101,37.806 46.963,37.806 L43.963,37.806 C43.825,37.806 43.713,37.918 43.713,38.056 C43.713,38.195 43.825,38.306 43.963,38.306" id="Fill-3826" fill="#8ACED3"></path>
            <path d="M36.963,38.306 L39.963,38.306 C40.101,38.306 40.213,38.195 40.213,38.056 C40.213,37.918 40.101,37.806 39.963,37.806 L36.963,37.806 C36.825,37.806 36.713,37.918 36.713,38.056 C36.713,38.195 36.825,38.306 36.963,38.306" id="Fill-3827" fill="#8ACED3"></path>
            <path d="M8.963,38.306 L11.963,38.306 C12.101,38.306 12.213,38.194 12.213,38.056 C12.213,37.918 12.101,37.807 11.963,37.807 L8.963,37.807 C8.825,37.807 8.713,37.918 8.713,38.056 C8.713,38.194 8.825,38.306 8.963,38.306" id="Fill-3866" fill="#8ACED3"></path>
            <path d="M1.963,38.306 L4.963,38.306 C5.101,38.306 5.213,38.194 5.213,38.056 C5.213,37.918 5.101,37.807 4.963,37.807 L1.963,37.807 C1.826,37.807 1.713,37.918 1.713,38.056 C1.713,38.194 1.826,38.306 1.963,38.306" id="Fill-3867" fill="#8ACED3"></path>
            <path d="M22.963,38.306 L25.963,38.306 C26.101,38.306 26.213,38.194 26.213,38.056 C26.213,37.918 26.101,37.807 25.963,37.807 L22.963,37.807 C22.826,37.807 22.713,37.918 22.713,38.056 C22.713,38.194 22.826,38.306 22.963,38.306" id="Fill-3870" fill="#8ACED3"></path>
            <path d="M15.963,38.306 L18.963,38.306 C19.101,38.306 19.213,38.194 19.213,38.056 C19.213,37.918 19.101,37.807 18.963,37.807 L15.963,37.807 C15.825,37.807 15.713,37.918 15.713,38.056 C15.713,38.194 15.825,38.306 15.963,38.306" id="Fill-3872" fill="#8ACED3"></path>
            <path d="M26.302,47.955 L23.302,47.955 C23.164,47.955 23.052,48.067 23.052,48.205 C23.052,48.343 23.164,48.455 23.302,48.455 L26.302,48.455 C26.44,48.455 26.552,48.343 26.552,48.205 C26.552,48.067 26.44,47.955 26.302,47.955" id="Fill-4072" fill="#8ACED3"></path>
            <path d="M40.302,47.955 L37.302,47.955 C37.164,47.955 37.052,48.067 37.052,48.205 C37.052,48.343 37.164,48.455 37.302,48.455 L40.302,48.455 C40.44,48.455 40.552,48.343 40.552,48.205 C40.552,48.067 40.44,47.955 40.302,47.955" id="Fill-4092" fill="#8ACED3"></path>
            <path d="M33.302,47.955 L30.302,47.955 C30.164,47.955 30.052,48.067 30.052,48.205 C30.052,48.343 30.164,48.455 30.302,48.455 L33.302,48.455 C33.44,48.455 33.552,48.343 33.552,48.205 C33.552,48.067 33.44,47.955 33.302,47.955" id="Fill-4106" fill="#8ACED3"></path>
            <polyline id="Fill-17550" fill="#DBF0F6" points="2.365 15.104 32.365 1.103 62.365 15.104 32.365 29.103 2.365 15.104"></polyline>
            <polyline id="Fill-17551" fill="#E4F4F8" points="32.365 29.103 2.365 15.104 32.365 1.103 62.365 15.104 32.365 29.103"></polyline>
            <polyline id="Fill-17552" fill="#DBF0F6" points="62.365 39.108 32.365 53.107 2.365 39.108 2.365 15.107 32.365 29.107 62.365 15.107 62.365 39.108"></polyline>
            <polyline id="Fill-17553" fill="#B7C7DA" points="32.365 53.107 2.365 39.108 2.365 15.107 32.365 29.107 32.365 53.107"></polyline>
            <polyline id="Fill-17554" fill="#2C3C58" points="2.365 15.104 2.788 16.01 32.365 2.207 60 15.104 32.365 28 2.788 14.198 2.365 15.104 2.788 16.01 2.365 15.104 1.942 16.01 32.365 30.207 64.73 15.104 32.365 0 0 15.104 1.942 16.01 2.365 15.104"></polyline>
            <path d="M61.942,22.201 L32.365,36.003 L2.788,22.201 C2.287,21.967 1.692,22.184 1.459,22.684 C1.225,23.185 1.442,23.78 1.942,24.013 L32.365,38.21 L62.788,24.013 C63.288,23.78 63.505,23.185 63.271,22.684 C63.037,22.184 62.442,21.967 61.942,22.201" id="Fill-17555" fill="#2C3C58"></path>
            <path d="M61.942,30.198 L32.365,44 L2.788,30.198 C2.287,29.964 1.692,30.181 1.459,30.681 C1.225,31.182 1.442,31.777 1.942,32.01 L32.365,46.207 L62.788,32.01 C63.288,31.777 63.505,31.182 63.271,30.681 C63.038,30.181 62.443,29.964 61.942,30.198" id="Fill-17556" fill="#2C3C58"></path>
            <path d="M61.942,38.202 L32.365,52.004 L2.788,38.202 C2.287,37.968 1.692,38.185 1.459,38.685 C1.225,39.186 1.442,39.781 1.942,40.014 L32.365,54.211 L62.788,40.014 C63.288,39.781 63.505,39.186 63.271,38.685 C63.038,38.185 62.443,37.968 61.942,38.202" id="Fill-17557" fill="#2C3C58"></path>
        </g>
    </g>
</svg>