<svg width="44" height="44" viewBox="0 0 44 44" fill="none" xmlns="http://www.w3.org/2000/svg">
<g filter="url(#filter0_d)">
<rect x="2" y="1" width="40" height="40" rx="4" fill="url(#paint0_linear)"/>
</g>
<path d="M22.051 17.67H17.618V15.097C17.618 14.5803 17.339 14.322 16.781 14.322H15.51C14.952 14.322 14.673 14.5803 14.673 15.097V27.187C14.673 27.4763 14.735 27.683 14.859 27.807C14.983 27.9103 15.2 27.962 15.51 27.962H16.781C17.091 27.962 17.308 27.9103 17.432 27.807C17.556 27.683 17.618 27.4763 17.618 27.187V23.343H16.068V20.398H22.051V27.59C22.051 29.8633 20.749 31 18.145 31H14.146C11.542 31 10.24 29.8633 10.24 27.59V14.694C10.24 12.4207 11.542 11.284 14.146 11.284H18.145C20.749 11.284 22.051 12.4207 22.051 14.694V17.67ZM27.6947 15.314V17.918H23.2617V14.694C23.2617 12.4207 24.5637 11.284 27.1677 11.284H30.5157C33.161 11.284 34.4837 12.4207 34.4837 14.694V17.205C34.4837 18.1557 34.339 18.9823 34.0497 19.685C33.781 20.367 33.3367 21.1213 32.7167 21.948L28.7487 27.745H34.5457V31H23.3547V27.993L28.8107 20.677C29.3274 20.0363 29.6684 19.468 29.8337 18.972C30.0197 18.476 30.1127 17.8663 30.1127 17.143V15.314C30.1127 14.7973 29.8337 14.539 29.2757 14.539H28.5007C27.9634 14.539 27.6947 14.7973 27.6947 15.314Z" fill="#2D5270"/>
<defs>
<filter id="filter0_d" x="0" y="0" width="44" height="44" filterUnits="userSpaceOnUse" color-interpolation-filters="sRGB">
<feFlood flood-opacity="0" result="BackgroundImageFix"/>
<feColorMatrix in="SourceAlpha" type="matrix" values="0 0 0 0 0 0 0 0 0 0 0 0 0 0 0 0 0 0 127 0"/>
<feOffset dy="1"/>
<feGaussianBlur stdDeviation="1"/>
<feColorMatrix type="matrix" values="0 0 0 0 0 0 0 0 0 0 0 0 0 0 0 0 0 0 0.25 0"/>
<feBlend mode="normal" in2="BackgroundImageFix" result="effect1_dropShadow"/>
<feBlend mode="normal" in="SourceGraphic" in2="effect1_dropShadow" result="shape"/>
</filter>
<linearGradient id="paint0_linear" x1="22" y1="1" x2="22" y2="41" gradientUnits="userSpaceOnUse">
<stop stop-color="#00C970"/>
<stop offset="1" stop-color="#009D57"/>
</linearGradient>
</defs>
</svg>
