<?xml version="1.0" encoding="UTF-8" standalone="no"?>
<svg width="227px" height="22px" viewBox="0 0 227 22" version="1.1" xmlns="http://www.w3.org/2000/svg" xmlns:xlink="http://www.w3.org/1999/xlink" xmlns:sketch="http://www.bohemiancoding.com/sketch/ns">
    <!-- Generator: Sketch 3.3.3 (12072) - http://www.bohemiancoding.com/sketch -->
    <title>logo-full-green-white-long</title>
    <desc>Created with Sketch.</desc>
    <defs></defs>
    <g id="Page-1" stroke="none" stroke-width="1" fill="none" fill-rule="evenodd" sketch:type="MSPage">
        <g id="Group-Copy" sketch:type="MSLayerGroup" transform="translate(-112.000000, -869.000000)">
            <g id="logo-full-green-white-long" transform="translate(112.000000, 869.000000)" sketch:type="MSShapeGroup">
                <g id="Rectangle-1-+-G">
                    <rect id="Rectangle-1" fill="#7BD500" x="0" y="0" width="22.0167224" height="22" rx="2"></rect>
                    <path d="M10.543946,9.91527778 L16.5736994,9.91527778 L16.5736994,17.4395833 C14.9364523,17.9997713 13.1367816,18.2798611 11.1746333,18.2798611 C9.02136672,18.2798611 7.3570695,17.6560248 6.18169172,16.4083333 C5.00631395,15.1606419 4.41863387,13.3814352 4.41863387,11.0706597 C4.41863387,8.81717623 5.06205596,7.0634322 6.34891943,5.809375 C7.6357829,4.5553178 9.43863885,3.92829861 11.7575413,3.92829861 C12.6366857,3.92829861 13.4664454,4.01105241 14.2468452,4.1765625 C15.0272451,4.34207259 15.7072977,4.55213993 16.2870233,4.80677083 L15.0925397,7.76684028 C14.0859831,7.27031002 12.9806986,7.02204861 11.7766531,7.02204861 C10.6745373,7.02204861 9.82248086,7.38011795 9.2204581,8.09626736 C8.61843533,8.81241678 8.31742847,9.83569937 8.31742847,11.1661458 C8.31742847,12.4711292 8.58976801,13.4657663 9.13445527,14.1500868 C9.67914254,14.8344074 10.4643086,15.1765625 11.489977,15.1765625 C12.0505908,15.1765625 12.5666026,15.1224542 13.0380278,15.0142361 L13.0380278,12.8276042 L10.543946,12.8276042 L10.543946,9.91527778 Z" id="G" fill="#1C3048"></path>
                </g>
                <g id="GROWTH-+-LEARNING" transform="translate(28.849498, 3.034483)" fill="#FFFFFF">
                    <path d="M96.9633626,15.1018444 L96.9633626,0.736798629 L97.9663369,0.736798629 L97.9663369,14.1585856 L104.819995,14.1585856 L104.819995,15.1018444 L96.9633626,15.1018444 Z M116.603404,15.1018444 L108.746773,15.1018444 L108.746773,0.736798629 L116.603404,0.736798629 L116.603404,1.66040622 L109.749747,1.66040622 L109.749747,7.09397006 L116.219914,7.09397006 L116.219914,8.01757766 L109.749747,8.01757766 L109.749747,14.1782368 L116.603404,14.1782368 L116.603404,15.1018444 Z M128.951635,10.0318283 L123.110785,10.0318283 L121.104836,15.1018444 L119.993698,15.1018444 L125.77555,0.677844953 L126.4147,0.677844953 L132.078555,15.1018444 L130.947751,15.1018444 L128.951635,10.0318283 Z M123.474609,9.12787189 L128.61731,9.12787189 L126.660527,3.94977399 C126.496642,3.54364663 126.299982,2.98031714 126.070542,2.2597686 C125.893546,2.88861096 125.700164,3.4584908 125.490391,3.96942521 L123.474609,9.12787189 Z M136.565819,8.84292912 L136.565819,15.1018444 L135.562844,15.1018444 L135.562844,0.736798629 L138.984757,0.736798629 C140.767831,0.736798629 142.085451,1.06595336 142.937655,1.72427271 C143.78986,2.38259205 144.215956,3.37333143 144.215956,4.69652056 C144.215956,5.65943542 143.961937,6.47167795 143.453892,7.13327251 C142.945847,7.79486707 142.173958,8.26976694 141.138201,8.55798635 L145.041935,15.1018444 L143.842299,15.1018444 L140.135227,8.84292912 L136.565819,8.84292912 Z M136.565819,7.9782752 L139.309248,7.9782752 C140.522001,7.9782752 141.46269,7.70807356 142.131343,7.16766215 C142.799995,6.62725075 143.134317,5.8297465 143.134317,4.77512546 C143.134317,3.68120177 142.806551,2.8853351 142.151009,2.38750157 C141.495467,1.88966803 140.426949,1.640755 138.945424,1.640755 L136.565819,1.640755 L136.565819,7.9782752 Z M158.708961,15.1018444 L157.696154,15.1018444 L149.180705,2.34819912 L149.102041,2.34819912 C149.180706,3.86790148 149.220038,5.0142115 149.220038,5.78716357 L149.220038,15.1018444 L148.256396,15.1018444 L148.256396,0.736798629 L149.25937,0.736798629 L157.764985,13.4707927 L157.823984,13.4707927 C157.764985,12.2917133 157.735486,11.1716046 157.735486,10.1104332 L157.735486,0.736798629 L158.708961,0.736798629 L158.708961,15.1018444 Z M164.950848,15.1018444 L164.950848,0.736798629 L165.953823,0.736798629 L165.953823,15.1018444 L164.950848,15.1018444 Z M181.926125,15.1018444 L180.913318,15.1018444 L172.397869,2.34819912 L172.319205,2.34819912 C172.39787,3.86790148 172.437202,5.0142115 172.437202,5.78716357 L172.437202,15.1018444 L171.47356,15.1018444 L171.47356,0.736798629 L172.476534,0.736798629 L180.982149,13.4707927 L181.041148,13.4707927 C180.982149,12.2917133 180.95265,11.1716046 180.95265,10.1104332 L180.95265,0.736798629 L181.926125,0.736798629 L181.926125,15.1018444 Z M192.377734,7.86036785 L197.677765,7.86036785 L197.677765,14.4140515 C196.288016,15.0035912 194.724571,15.2983567 192.987385,15.2983567 C190.71921,15.2983567 188.98041,14.6580607 187.770935,13.3774494 C186.56146,12.0968381 185.956732,10.2840307 185.956732,7.93897275 C185.956732,6.47822436 186.256638,5.18289403 186.856459,4.05294292 C187.45628,2.92299181 188.315027,2.05015861 189.432726,1.43441713 C190.550425,0.818675657 191.83363,0.510809537 193.282377,0.510809537 C194.849123,0.510809537 196.255239,0.799024628 197.500769,1.37546346 L197.097613,2.27941983 C195.852083,1.702981 194.560685,1.41476591 193.223379,1.41476591 C191.328862,1.41476591 189.826055,1.99938402 188.714911,3.16863778 C187.603767,4.33789154 187.048204,5.91488661 187.048204,7.8996703 C187.048204,10.0613159 187.575907,11.6874386 188.63133,12.778087 C189.686753,13.8687355 191.237086,14.4140515 193.282377,14.4140515 C194.606572,14.4140515 195.73081,14.2273668 196.655124,13.8539916 L196.655124,8.80362667 L192.377734,8.80362667 L192.377734,7.86036785 Z" id="LEARNING" fill-opacity="0.499971694"></path>
                    <path d="M6.69746976,6.61126078 L13.0131166,6.61126078 L13.0131166,14.4923222 C11.2982415,15.0790708 9.41324155,15.3724407 7.3580604,15.3724407 C5.10269926,15.3724407 3.35949139,14.7190259 2.12838449,13.4121767 C0.897277596,12.1053275 0.281733382,10.2417618 0.281733382,7.82142376 C0.281733382,5.46109407 0.955662549,3.62419838 2.3035411,2.31068157 C3.65141965,0.997164769 5.53975583,0.340416218 7.96860629,0.340416218 C8.88943421,0.340416218 9.75853594,0.427093691 10.5759375,0.600451239 C11.3933391,0.773808787 12.1056356,0.99383622 12.7128482,1.26054014 L11.4617295,4.3609577 C10.4074483,3.84088506 9.24975808,3.58085264 7.98862419,3.58085264 C6.83425296,3.58085264 5.94179725,3.9558994 5.31123031,4.70600418 C4.68066336,5.45610895 4.36538462,6.52790925 4.36538462,7.92143723 C4.36538462,9.28829482 4.65063681,10.3300914 5.22114976,11.0468582 C5.79166271,11.7636249 6.61405648,12.122003 7.68835572,12.122003 C8.27555033,12.122003 8.81602818,12.0653292 9.30980547,11.9519801 L9.30980547,9.66167161 L6.69746976,9.66167161 L6.69746976,6.61126078 Z M19.9493184,9.8516972 L19.9493184,15.1724138 L15.9957835,15.1724138 L15.9957835,0.550444504 L20.7900701,0.550444504 C24.7669791,0.550444504 26.7554038,1.99062407 26.7554038,4.8710264 C26.7554038,6.56459629 25.9280056,7.87475964 24.2731844,8.80155577 L28.5369967,15.1724138 L24.0529875,15.1724138 L20.9502133,9.8516972 L19.9493184,9.8516972 Z M19.9493184,6.88129714 L20.6899806,6.88129714 C22.0712225,6.88129714 22.7618331,6.27122108 22.7618331,5.05105065 C22.7618331,4.04424335 22.0845676,3.54084725 20.7300164,3.54084725 L19.9493184,3.54084725 L19.9493184,6.88129714 Z M43.5604293,7.84142645 C43.5604293,10.3017701 42.9565621,12.1720033 41.7488095,13.4521821 C40.5410569,14.7323609 38.772827,15.3724407 36.4440665,15.3724407 C34.1486693,15.3724407 32.3887801,14.7290272 31.1643458,13.4421808 C29.9399116,12.1553344 29.3277037,10.2817674 29.3277037,7.82142376 C29.3277037,5.38775049 29.9365753,3.52918543 31.1543369,2.24567282 C32.3720984,0.962160204 34.1419966,0.320413524 36.4640844,0.320413524 C38.7928449,0.320413524 40.5577386,0.957159581 41.7588185,2.2306708 C42.9598984,3.50418201 43.5604293,5.3744152 43.5604293,7.84142645 L43.5604293,7.84142645 Z M33.4914265,7.84142645 C33.4914265,10.668488 34.47563,12.0819976 36.4440665,12.0819976 C37.4449664,12.0819976 38.1872894,11.7386214 38.6710577,11.0518588 C39.154826,10.3650962 39.3967065,9.29496282 39.3967065,7.84142645 C39.3967065,6.38122249 39.1514897,5.3027547 38.6610487,4.60599071 C38.1706078,3.90922672 37.4382936,3.56084995 36.4640844,3.56084995 C34.4823026,3.56084995 33.4914265,4.98769451 33.4914265,7.84142645 L33.4914265,7.84142645 Z M62.0069225,15.1724138 L57.3327433,15.1724138 L55.9314904,8.80155577 C55.8647637,8.53485185 55.7596708,8.00478576 55.6162085,7.21134159 C55.4727462,6.41789743 55.3676533,5.75448138 55.3009266,5.22107355 C55.2475453,5.65446741 55.1608019,6.19286788 55.0406939,6.83629108 C54.9205859,7.47971429 54.8021479,8.07145473 54.6853762,8.61153017 C54.5686046,9.15160561 54.0831754,11.3385449 53.2290741,15.1724138 L48.5548949,15.1724138 L44.9316553,0.550444504 L48.7450649,0.550444504 L50.3364878,7.88143184 C50.6968118,9.50165815 50.9436967,10.791819 51.0771501,11.7519531 C51.1638947,11.0718581 51.3190319,10.1484097 51.5425662,8.98158001 C51.7661005,7.81475036 51.9746182,6.84796315 52.1681255,6.08118939 L53.45928,0.550444504 L57.1225553,0.550444504 L58.373674,6.08118939 C58.5871993,6.96797992 58.8040577,7.99144086 59.0242557,9.15160291 C59.2444536,10.311765 59.3912501,11.1785397 59.4646494,11.7519531 C59.5513941,11.0118497 59.7882702,9.72835639 60.1752848,7.90143454 L61.7967346,0.550444504 L65.6101442,0.550444504 L62.0069225,15.1724138 Z M73.9576077,15.1724138 L70.0040728,15.1724138 L70.0040728,3.78087958 L66.430878,3.78087958 L66.430878,0.550444504 L77.5207936,0.550444504 L77.5207936,3.78087958 L73.9576077,3.78087958 L73.9576077,15.1724138 Z M92.1538772,15.1724138 L88.1803244,15.1724138 L88.1803244,9.21161099 L83.5862168,9.21161099 L83.5862168,15.1724138 L79.612664,15.1724138 L79.612664,0.550444504 L83.5862168,0.550444504 L83.5862168,5.97117457 L88.1803244,5.97117457 L88.1803244,0.550444504 L92.1538772,0.550444504 L92.1538772,15.1724138 Z" id="GROWTH"></path>
                </g>
            </g>
        </g>
    </g>
</svg>