<?xml version="1.0" encoding="UTF-8" standalone="no"?>
<svg width="27px" height="10px" viewBox="0 0 27 10" version="1.1" xmlns="http://www.w3.org/2000/svg" xmlns:xlink="http://www.w3.org/1999/xlink">
    <!-- Generator: Sketch 41.2 (35397) - http://www.bohemiancoding.com/sketch -->
    <title>Group 8</title>
    <desc>Created with Sketch.</desc>
    <defs></defs>
    <g id="Page-1" stroke="none" stroke-width="1" fill="none" fill-rule="evenodd">
        <g id="Artboard" transform="translate(-172.000000, -910.000000)" fill="#FFFFFF">
            <g id="Group-8" transform="translate(172.000000, 910.000000)">
                <path d="M6.534606,2.10825071 C6.6741151,1.96874162 6.6741151,1.74552707 6.534606,1.60601797 L5.60826561,0.679677581 C5.46875652,0.540168487 5.24554197,0.540168487 5.10603287,0.679677581 L0.965402937,4.82030752 C0.825893842,4.95981661 0.825893842,5.18303116 0.965402937,5.32254026 L5.10603287,9.46317019 C5.24554197,9.60267929 5.46875652,9.60267929 5.60826561,9.46317019 L6.534606,8.53682981 C6.6741151,8.39732071 6.6741151,8.17410616 6.534606,8.03459706 L3.57143283,5.07142389 L6.534606,2.10825071 Z" id=""></path>
                <path d="M16.534606,2.10825071 C16.6741151,1.96874162 16.6741151,1.74552707 16.534606,1.60601797 L15.6082656,0.679677581 C15.4687565,0.540168487 15.245542,0.540168487 15.1060329,0.679677581 L10.9654029,4.82030752 C10.8258938,4.95981661 10.8258938,5.18303116 10.9654029,5.32254026 L15.1060329,9.46317019 C15.245542,9.60267929 15.4687565,9.60267929 15.6082656,9.46317019 L16.534606,8.53682981 C16.6741151,8.39732071 16.6741151,8.17410616 16.534606,8.03459706 L13.5714328,5.07142389 L16.534606,2.10825071 Z" id=""></path>
                <path d="M26.534606,2.10825071 C26.6741151,1.96874162 26.6741151,1.74552707 26.534606,1.60601797 L25.6082656,0.679677581 C25.4687565,0.540168487 25.245542,0.540168487 25.1060329,0.679677581 L20.9654029,4.82030752 C20.8258938,4.95981661 20.8258938,5.18303116 20.9654029,5.32254026 L25.1060329,9.46317019 C25.245542,9.60267929 25.4687565,9.60267929 25.6082656,9.46317019 L26.534606,8.53682981 C26.6741151,8.39732071 26.6741151,8.17410616 26.534606,8.03459706 L23.5714328,5.07142389 L26.534606,2.10825071 Z" id=""></path>
            </g>
        </g>
    </g>
</svg>